<svg width="1280" height="832" viewBox="0 0 1280 832" fill="none" xmlns="http://www.w3.org/2000/svg">
<g clip-path="url(#clip0_2194_55)">
<rect width="1280" height="832" fill="white"/>
<rect width="1280" height="69" fill="#73B7DE"/>
<line x1="28" y1="17.5" x2="70" y2="17.5" stroke="black"/>
<line x1="28" y1="50.5" x2="70" y2="50.5" stroke="black"/>
<line x1="28" y1="33.5" x2="70" y2="33.5" stroke="black"/>
<path d="M504.246 46L515.766 20.8H518.394L529.914 46H527.106L516.522 22.348H517.602L507.018 46H504.246ZM508.782 39.268L509.574 37.108H524.226L525.018 39.268H508.782ZM533.543 46V27.1H535.991V32.248L535.739 31.348C536.267 29.908 537.155 28.816 538.403 28.072C539.651 27.304 541.199 26.92 543.047 26.92V29.404C542.951 29.404 542.855 29.404 542.759 29.404C542.663 29.38 542.567 29.368 542.471 29.368C540.479 29.368 538.919 29.98 537.791 31.204C536.663 32.404 536.099 34.12 536.099 36.352V46H533.543ZM557.466 46.18C555.81 46.18 554.322 45.808 553.002 45.064C551.682 44.296 550.638 43.192 549.87 41.752C549.102 40.312 548.718 38.572 548.718 36.532C548.718 34.468 549.102 32.728 549.87 31.312C550.662 29.872 551.718 28.78 553.038 28.036C554.358 27.292 555.834 26.92 557.466 26.92C559.266 26.92 560.874 27.328 562.29 28.144C563.73 28.936 564.858 30.052 565.674 31.492C566.49 32.932 566.898 34.612 566.898 36.532C566.898 38.428 566.49 40.108 565.674 41.572C564.858 43.012 563.73 44.14 562.29 44.956C560.874 45.772 559.266 46.18 557.466 46.18ZM547.71 46V19.288H550.266V32.68L549.906 36.496L550.158 40.312V46H547.71ZM557.286 43.912C558.63 43.912 559.83 43.612 560.886 43.012C561.942 42.388 562.782 41.524 563.406 40.42C564.03 39.292 564.342 37.996 564.342 36.532C564.342 35.044 564.03 33.748 563.406 32.644C562.782 31.54 561.942 30.688 560.886 30.088C559.83 29.464 558.63 29.152 557.286 29.152C555.942 29.152 554.73 29.464 553.65 30.088C552.594 30.688 551.754 31.54 551.13 32.644C550.53 33.748 550.23 35.044 550.23 36.532C550.23 37.996 550.53 39.292 551.13 40.42C551.754 41.524 552.594 42.388 553.65 43.012C554.73 43.612 555.942 43.912 557.286 43.912ZM572.109 46V27.1H574.557V32.248L574.305 31.348C574.833 29.908 575.721 28.816 576.969 28.072C578.217 27.304 579.765 26.92 581.613 26.92V29.404C581.517 29.404 581.421 29.404 581.325 29.404C581.229 29.38 581.133 29.368 581.037 29.368C579.045 29.368 577.485 29.98 576.357 31.204C575.229 32.404 574.665 34.12 574.665 36.352V46H572.109ZM594.129 46.18C592.161 46.18 590.433 45.772 588.945 44.956C587.457 44.116 586.293 42.976 585.453 41.536C584.613 40.072 584.193 38.404 584.193 36.532C584.193 34.66 584.589 33.004 585.381 31.564C586.197 30.124 587.301 28.996 588.693 28.18C590.109 27.34 591.693 26.92 593.445 26.92C595.221 26.92 596.793 27.328 598.161 28.144C599.553 28.936 600.645 30.064 601.437 31.528C602.229 32.968 602.625 34.636 602.625 36.532C602.625 36.652 602.613 36.784 602.589 36.928C602.589 37.048 602.589 37.18 602.589 37.324H586.137V35.416H601.221L600.213 36.172C600.213 34.804 599.913 33.592 599.313 32.536C598.737 31.456 597.945 30.616 596.937 30.016C595.929 29.416 594.765 29.116 593.445 29.116C592.149 29.116 590.985 29.416 589.953 30.016C588.921 30.616 588.117 31.456 587.541 32.536C586.965 33.616 586.677 34.852 586.677 36.244V36.64C586.677 38.08 586.989 39.352 587.613 40.456C588.261 41.536 589.149 42.388 590.277 43.012C591.429 43.612 592.737 43.912 594.201 43.912C595.353 43.912 596.421 43.708 597.405 43.3C598.413 42.892 599.277 42.268 599.997 41.428L601.437 43.084C600.597 44.092 599.541 44.86 598.269 45.388C597.021 45.916 595.641 46.18 594.129 46.18ZM624.774 46.18C622.974 46.18 621.354 45.772 619.914 44.956C618.498 44.14 617.382 43.012 616.566 41.572C615.75 40.108 615.342 38.428 615.342 36.532C615.342 34.612 615.75 32.932 616.566 31.492C617.382 30.052 618.498 28.936 619.914 28.144C621.354 27.328 622.974 26.92 624.774 26.92C626.43 26.92 627.906 27.292 629.202 28.036C630.522 28.78 631.566 29.872 632.334 31.312C633.126 32.728 633.522 34.468 633.522 36.532C633.522 38.572 633.138 40.312 632.37 41.752C631.602 43.192 630.558 44.296 629.238 45.064C627.942 45.808 626.454 46.18 624.774 46.18ZM624.954 43.912C626.298 43.912 627.498 43.612 628.554 43.012C629.634 42.388 630.474 41.524 631.074 40.42C631.698 39.292 632.01 37.996 632.01 36.532C632.01 35.044 631.698 33.748 631.074 32.644C630.474 31.54 629.634 30.688 628.554 30.088C627.498 29.464 626.298 29.152 624.954 29.152C623.634 29.152 622.446 29.464 621.39 30.088C620.334 30.688 619.494 31.54 618.87 32.644C618.246 33.748 617.934 35.044 617.934 36.532C617.934 37.996 618.246 39.292 618.87 40.42C619.494 41.524 620.334 42.388 621.39 43.012C622.446 43.612 623.634 43.912 624.954 43.912ZM632.082 46V40.312L632.334 36.496L631.974 32.68V19.288H634.53V46H632.082ZM649.46 46.18C647.852 46.18 646.448 45.88 645.248 45.28C644.048 44.68 643.112 43.78 642.44 42.58C641.792 41.38 641.468 39.88 641.468 38.08V27.1H644.024V37.792C644.024 39.808 644.516 41.332 645.5 42.364C646.508 43.372 647.912 43.876 649.712 43.876C651.032 43.876 652.172 43.612 653.132 43.084C654.116 42.532 654.86 41.74 655.364 40.708C655.892 39.676 656.156 38.44 656.156 37V27.1H658.712V46H656.264V40.816L656.66 41.752C656.06 43.144 655.124 44.236 653.852 45.028C652.604 45.796 651.14 46.18 649.46 46.18ZM680.333 46.18C678.773 46.18 677.297 45.964 675.905 45.532C674.513 45.076 673.421 44.512 672.629 43.84L673.781 41.824C674.549 42.4 675.533 42.904 676.733 43.336C677.933 43.744 679.193 43.948 680.513 43.948C682.313 43.948 683.609 43.672 684.401 43.12C685.193 42.544 685.589 41.788 685.589 40.852C685.589 40.156 685.361 39.616 684.905 39.232C684.473 38.824 683.897 38.524 683.177 38.332C682.457 38.116 681.653 37.936 680.765 37.792C679.877 37.648 678.989 37.48 678.101 37.288C677.237 37.096 676.445 36.82 675.725 36.46C675.005 36.076 674.417 35.56 673.961 34.912C673.529 34.264 673.313 33.4 673.313 32.32C673.313 31.288 673.601 30.364 674.177 29.548C674.753 28.732 675.593 28.096 676.697 27.64C677.825 27.16 679.193 26.92 680.801 26.92C682.025 26.92 683.249 27.088 684.473 27.424C685.697 27.736 686.705 28.156 687.497 28.684L686.381 30.736C685.541 30.16 684.641 29.752 683.681 29.512C682.721 29.248 681.761 29.116 680.801 29.116C679.097 29.116 677.837 29.416 677.021 30.016C676.229 30.592 675.833 31.336 675.833 32.248C675.833 32.968 676.049 33.532 676.481 33.94C676.937 34.348 677.525 34.672 678.245 34.912C678.989 35.128 679.793 35.308 680.657 35.452C681.545 35.596 682.421 35.776 683.285 35.992C684.173 36.184 684.977 36.46 685.697 36.82C686.441 37.156 687.029 37.648 687.461 38.296C687.917 38.92 688.145 39.748 688.145 40.78C688.145 41.884 687.833 42.844 687.209 43.66C686.609 44.452 685.721 45.076 684.545 45.532C683.393 45.964 681.989 46.18 680.333 46.18ZM704.679 46V41.824L704.571 41.14V34.156C704.571 32.548 704.115 31.312 703.203 30.448C702.315 29.584 700.983 29.152 699.207 29.152C697.983 29.152 696.819 29.356 695.715 29.764C694.611 30.172 693.675 30.712 692.907 31.384L691.755 29.476C692.715 28.66 693.867 28.036 695.211 27.604C696.555 27.148 697.971 26.92 699.459 26.92C701.907 26.92 703.791 27.532 705.111 28.756C706.455 29.956 707.127 31.792 707.127 34.264V46H704.679ZM698.163 46.18C696.747 46.18 695.511 45.952 694.455 45.496C693.423 45.016 692.631 44.368 692.079 43.552C691.527 42.712 691.251 41.752 691.251 40.672C691.251 39.688 691.479 38.8 691.935 38.008C692.415 37.192 693.183 36.544 694.239 36.064C695.319 35.56 696.759 35.308 698.559 35.308H705.075V37.216H698.631C696.807 37.216 695.535 37.54 694.815 38.188C694.119 38.836 693.771 39.64 693.771 40.6C693.771 41.68 694.191 42.544 695.031 43.192C695.871 43.84 697.047 44.164 698.559 44.164C699.999 44.164 701.235 43.84 702.267 43.192C703.323 42.52 704.091 41.56 704.571 40.312L705.147 42.076C704.667 43.324 703.827 44.32 702.627 45.064C701.451 45.808 699.963 46.18 698.163 46.18ZM718.578 46L710.19 27.1H712.854L720.558 44.632H719.298L727.11 27.1H729.63L721.206 46H718.578ZM740.407 46.18C738.583 46.18 736.939 45.772 735.475 44.956C734.035 44.116 732.895 42.976 732.055 41.536C731.215 40.072 730.795 38.404 730.795 36.532C730.795 34.636 731.215 32.968 732.055 31.528C732.895 30.088 734.035 28.96 735.475 28.144C736.915 27.328 738.559 26.92 740.407 26.92C742.279 26.92 743.935 27.328 745.375 28.144C746.839 28.96 747.979 30.088 748.795 31.528C749.635 32.968 750.055 34.636 750.055 36.532C750.055 38.404 749.635 40.072 748.795 41.536C747.979 42.976 746.839 44.116 745.375 44.956C743.911 45.772 742.255 46.18 740.407 46.18ZM740.407 43.912C741.775 43.912 742.987 43.612 744.043 43.012C745.099 42.388 745.927 41.524 746.527 40.42C747.151 39.292 747.463 37.996 747.463 36.532C747.463 35.044 747.151 33.748 746.527 32.644C745.927 31.54 745.099 30.688 744.043 30.088C742.987 29.464 741.787 29.152 740.443 29.152C739.099 29.152 737.899 29.464 736.843 30.088C735.787 30.688 734.947 31.54 734.323 32.644C733.699 33.748 733.387 35.044 733.387 36.532C733.387 37.996 733.699 39.292 734.323 40.42C734.947 41.524 735.787 42.388 736.843 43.012C737.899 43.612 739.087 43.912 740.407 43.912ZM755.273 46V27.1H757.829V46H755.273ZM756.569 22.924C756.041 22.924 755.597 22.744 755.237 22.384C754.877 22.024 754.697 21.592 754.697 21.088C754.697 20.584 754.877 20.164 755.237 19.828C755.597 19.468 756.041 19.288 756.569 19.288C757.097 19.288 757.541 19.456 757.901 19.792C758.261 20.128 758.441 20.548 758.441 21.052C758.441 21.58 758.261 22.024 757.901 22.384C757.565 22.744 757.121 22.924 756.569 22.924ZM764.941 46V27.1H767.389V32.248L767.137 31.348C767.665 29.908 768.553 28.816 769.801 28.072C771.049 27.304 772.597 26.92 774.445 26.92V29.404C774.349 29.404 774.253 29.404 774.157 29.404C774.061 29.38 773.965 29.368 773.869 29.368C771.877 29.368 770.317 29.98 769.189 31.204C768.061 32.404 767.497 34.12 767.497 36.352V46H764.941Z" fill="black"/>
<path d="M1173.5 8.5H1261.5V59.5H1173.5V8.5Z" stroke="black"/>
<path d="M1194.58 41V27H1196.06V39.72H1203.9V41H1194.58ZM1210.19 41.1C1209.17 41.1 1208.26 40.8733 1207.45 40.42C1206.65 39.9533 1206.01 39.32 1205.55 38.52C1205.08 37.7067 1204.85 36.78 1204.85 35.74C1204.85 34.6867 1205.08 33.76 1205.55 32.96C1206.01 32.16 1206.65 31.5333 1207.45 31.08C1208.25 30.6267 1209.16 30.4 1210.19 30.4C1211.23 30.4 1212.15 30.6267 1212.95 31.08C1213.76 31.5333 1214.39 32.16 1214.85 32.96C1215.31 33.76 1215.55 34.6867 1215.55 35.74C1215.55 36.78 1215.31 37.7067 1214.85 38.52C1214.39 39.32 1213.76 39.9533 1212.95 40.42C1212.13 40.8733 1211.21 41.1 1210.19 41.1ZM1210.19 39.84C1210.95 39.84 1211.62 39.6733 1212.21 39.34C1212.79 38.9933 1213.25 38.5133 1213.59 37.9C1213.93 37.2733 1214.11 36.5533 1214.11 35.74C1214.11 34.9133 1213.93 34.1933 1213.59 33.58C1213.25 32.9667 1212.79 32.4933 1212.21 32.16C1211.62 31.8133 1210.95 31.64 1210.21 31.64C1209.46 31.64 1208.79 31.8133 1208.21 32.16C1207.62 32.4933 1207.15 32.9667 1206.81 33.58C1206.46 34.1933 1206.29 34.9133 1206.29 35.74C1206.29 36.5533 1206.46 37.2733 1206.81 37.9C1207.15 38.5133 1207.62 38.9933 1208.21 39.34C1208.79 39.6733 1209.45 39.84 1210.19 39.84ZM1222.92 44.98C1221.96 44.98 1221.04 44.84 1220.16 44.56C1219.28 44.28 1218.57 43.88 1218.02 43.36L1218.74 42.28C1219.24 42.72 1219.84 43.0667 1220.56 43.32C1221.3 43.5867 1222.07 43.72 1222.88 43.72C1224.22 43.72 1225.2 43.4067 1225.82 42.78C1226.45 42.1667 1226.76 41.2067 1226.76 39.9V37.28L1226.96 35.48L1226.82 33.68V30.5H1228.18V39.72C1228.18 41.5333 1227.74 42.86 1226.84 43.7C1225.96 44.5533 1224.66 44.98 1222.92 44.98ZM1222.66 40.6C1221.66 40.6 1220.76 40.3867 1219.96 39.96C1219.16 39.52 1218.53 38.9133 1218.06 38.14C1217.61 37.3667 1217.38 36.48 1217.38 35.48C1217.38 34.48 1217.61 33.6 1218.06 32.84C1218.53 32.0667 1219.16 31.4667 1219.96 31.04C1220.76 30.6133 1221.66 30.4 1222.66 30.4C1223.6 30.4 1224.44 30.5933 1225.18 30.98C1225.93 31.3667 1226.52 31.94 1226.96 32.7C1227.4 33.46 1227.62 34.3867 1227.62 35.48C1227.62 36.5733 1227.4 37.5 1226.96 38.26C1226.52 39.02 1225.93 39.6 1225.18 40C1224.44 40.4 1223.6 40.6 1222.66 40.6ZM1222.8 39.34C1223.58 39.34 1224.26 39.18 1224.86 38.86C1225.46 38.5267 1225.94 38.0733 1226.28 37.5C1226.63 36.9133 1226.8 36.24 1226.8 35.48C1226.8 34.72 1226.63 34.0533 1226.28 33.48C1225.94 32.9067 1225.46 32.46 1224.86 32.14C1224.26 31.8067 1223.58 31.64 1222.8 31.64C1222.04 31.64 1221.36 31.8067 1220.74 32.14C1220.14 32.46 1219.67 32.9067 1219.32 33.48C1218.99 34.0533 1218.82 34.72 1218.82 35.48C1218.82 36.24 1218.99 36.9133 1219.32 37.5C1219.67 38.0733 1220.14 38.5267 1220.74 38.86C1221.36 39.18 1222.04 39.34 1222.8 39.34ZM1236.42 41.1C1235.4 41.1 1234.49 40.8733 1233.68 40.42C1232.88 39.9533 1232.24 39.32 1231.78 38.52C1231.31 37.7067 1231.08 36.78 1231.08 35.74C1231.08 34.6867 1231.31 33.76 1231.78 32.96C1232.24 32.16 1232.88 31.5333 1233.68 31.08C1234.48 30.6267 1235.39 30.4 1236.42 30.4C1237.46 30.4 1238.38 30.6267 1239.18 31.08C1239.99 31.5333 1240.62 32.16 1241.08 32.96C1241.54 33.76 1241.78 34.6867 1241.78 35.74C1241.78 36.78 1241.54 37.7067 1241.08 38.52C1240.62 39.32 1239.99 39.9533 1239.18 40.42C1238.36 40.8733 1237.44 41.1 1236.42 41.1ZM1236.42 39.84C1237.18 39.84 1237.85 39.6733 1238.44 39.34C1239.02 38.9933 1239.48 38.5133 1239.82 37.9C1240.16 37.2733 1240.34 36.5533 1240.34 35.74C1240.34 34.9133 1240.16 34.1933 1239.82 33.58C1239.48 32.9667 1239.02 32.4933 1238.44 32.16C1237.85 31.8133 1237.18 31.64 1236.44 31.64C1235.69 31.64 1235.02 31.8133 1234.44 32.16C1233.85 32.4933 1233.38 32.9667 1233.04 33.58C1232.69 34.1933 1232.52 34.9133 1232.52 35.74C1232.52 36.5533 1232.69 37.2733 1233.04 37.9C1233.38 38.5133 1233.85 38.9933 1234.44 39.34C1235.02 39.6733 1235.68 39.84 1236.42 39.84Z" fill="black"/>
<rect y="763" width="1280" height="69" fill="#73B7DE"/>
<path d="M52.1413 792.12C51.0879 792.12 50.1146 791.947 49.2213 791.6C48.3279 791.24 47.5546 790.74 46.9013 790.1C46.2479 789.46 45.7346 788.707 45.3613 787.84C45.0013 786.973 44.8213 786.027 44.8213 785C44.8213 783.973 45.0013 783.027 45.3613 782.16C45.7346 781.293 46.2479 780.54 46.9013 779.9C47.5679 779.26 48.3479 778.767 49.2413 778.42C50.1346 778.06 51.1079 777.88 52.1613 777.88C53.1746 777.88 54.1279 778.053 55.0213 778.4C55.9146 778.733 56.6679 779.24 57.2813 779.92L56.3413 780.86C55.7679 780.273 55.1346 779.853 54.4413 779.6C53.7479 779.333 53.0013 779.2 52.2013 779.2C51.3613 779.2 50.5813 779.347 49.8613 779.64C49.1413 779.92 48.5146 780.327 47.9813 780.86C47.4479 781.38 47.0279 781.993 46.7212 782.7C46.4279 783.393 46.2812 784.16 46.2812 785C46.2812 785.84 46.4279 786.613 46.7212 787.32C47.0279 788.013 47.4479 788.627 47.9813 789.16C48.5146 789.68 49.1413 790.087 49.8613 790.38C50.5813 790.66 51.3613 790.8 52.2013 790.8C53.0013 790.8 53.7479 790.667 54.4413 790.4C55.1346 790.133 55.7679 789.707 56.3413 789.12L57.2813 790.06C56.6679 790.74 55.9146 791.253 55.0213 791.6C54.1279 791.947 53.1679 792.12 52.1413 792.12ZM63.9475 792.1C62.9342 792.1 62.0208 791.873 61.2075 791.42C60.4075 790.953 59.7742 790.32 59.3075 789.52C58.8408 788.707 58.6075 787.78 58.6075 786.74C58.6075 785.687 58.8408 784.76 59.3075 783.96C59.7742 783.16 60.4075 782.533 61.2075 782.08C62.0075 781.627 62.9208 781.4 63.9475 781.4C64.9875 781.4 65.9075 781.627 66.7075 782.08C67.5208 782.533 68.1542 783.16 68.6075 783.96C69.0742 784.76 69.3075 785.687 69.3075 786.74C69.3075 787.78 69.0742 788.707 68.6075 789.52C68.1542 790.32 67.5208 790.953 66.7075 791.42C65.8942 791.873 64.9742 792.1 63.9475 792.1ZM63.9475 790.84C64.7075 790.84 65.3808 790.673 65.9675 790.34C66.5542 789.993 67.0142 789.513 67.3475 788.9C67.6942 788.273 67.8675 787.553 67.8675 786.74C67.8675 785.913 67.6942 785.193 67.3475 784.58C67.0142 783.967 66.5542 783.493 65.9675 783.16C65.3808 782.813 64.7142 782.64 63.9675 782.64C63.2208 782.64 62.5542 782.813 61.9675 783.16C61.3808 783.493 60.9142 783.967 60.5675 784.58C60.2208 785.193 60.0475 785.913 60.0475 786.74C60.0475 787.553 60.2208 788.273 60.5675 788.9C60.9142 789.513 61.3808 789.993 61.9675 790.34C62.5542 790.673 63.2142 790.84 63.9475 790.84ZM77.5666 781.4C78.4199 781.4 79.1666 781.567 79.8066 781.9C80.4599 782.22 80.9666 782.713 81.3266 783.38C81.6999 784.047 81.8866 784.887 81.8866 785.9V792H80.4666V786.04C80.4666 784.933 80.1866 784.1 79.6266 783.54C79.0799 782.967 78.3066 782.68 77.3066 782.68C76.5599 782.68 75.9066 782.833 75.3466 783.14C74.7999 783.433 74.3732 783.867 74.0666 784.44C73.7732 785 73.6266 785.68 73.6266 786.48V792H72.2066V781.5H73.5666V784.38L73.3466 783.84C73.6799 783.08 74.2132 782.487 74.9466 782.06C75.6799 781.62 76.5532 781.4 77.5666 781.4ZM89.9022 792.1C88.9022 792.1 88.0022 791.873 87.2022 791.42C86.4155 790.967 85.7955 790.34 85.3422 789.54C84.8889 788.727 84.6622 787.793 84.6622 786.74C84.6622 785.673 84.8889 784.74 85.3422 783.94C85.7955 783.14 86.4155 782.52 87.2022 782.08C88.0022 781.627 88.9022 781.4 89.9022 781.4C90.8222 781.4 91.6422 781.607 92.3622 782.02C93.0955 782.433 93.6755 783.04 94.1022 783.84C94.5422 784.627 94.7622 785.593 94.7622 786.74C94.7622 787.873 94.5489 788.84 94.1222 789.64C93.6955 790.44 93.1155 791.053 92.3822 791.48C91.6622 791.893 90.8355 792.1 89.9022 792.1ZM90.0022 790.84C90.7489 790.84 91.4155 790.673 92.0022 790.34C92.6022 789.993 93.0689 789.513 93.4022 788.9C93.7489 788.273 93.9222 787.553 93.9222 786.74C93.9222 785.913 93.7489 785.193 93.4022 784.58C93.0689 783.967 92.6022 783.493 92.0022 783.16C91.4155 782.813 90.7489 782.64 90.0022 782.64C89.2689 782.64 88.6089 782.813 88.0222 783.16C87.4355 783.493 86.9689 783.967 86.6222 784.58C86.2755 785.193 86.1022 785.913 86.1022 786.74C86.1022 787.553 86.2755 788.273 86.6222 788.9C86.9689 789.513 87.4355 789.993 88.0222 790.34C88.6089 790.673 89.2689 790.84 90.0022 790.84ZM93.9622 792V788.84L94.1022 786.72L93.9022 784.6V777.16H95.3222V792H93.9622ZM99.2769 792V781.5H100.697V792H99.2769ZM99.9969 779.18C99.7035 779.18 99.4569 779.08 99.2569 778.88C99.0569 778.68 98.9569 778.44 98.9569 778.16C98.9569 777.88 99.0569 777.647 99.2569 777.46C99.4569 777.26 99.7035 777.16 99.9969 777.16C100.29 777.16 100.537 777.253 100.737 777.44C100.937 777.627 101.037 777.86 101.037 778.14C101.037 778.433 100.937 778.68 100.737 778.88C100.55 779.08 100.304 779.18 99.9969 779.18ZM107.968 792.1C106.981 792.1 106.221 791.833 105.688 791.3C105.155 790.767 104.888 790.013 104.888 789.04V779.18H106.308V788.96C106.308 789.573 106.461 790.047 106.768 790.38C107.088 790.713 107.541 790.88 108.128 790.88C108.755 790.88 109.275 790.7 109.688 790.34L110.188 791.36C109.908 791.613 109.568 791.8 109.168 791.92C108.781 792.04 108.381 792.1 107.968 792.1ZM103.008 782.68V781.5H109.508V782.68H103.008ZM112.773 792V781.5H114.193V792H112.773ZM113.493 779.18C113.2 779.18 112.953 779.08 112.753 778.88C112.553 778.68 112.453 778.44 112.453 778.16C112.453 777.88 112.553 777.647 112.753 777.46C112.953 777.26 113.2 777.16 113.493 777.16C113.786 777.16 114.033 777.253 114.233 777.44C114.433 777.627 114.533 777.86 114.533 778.14C114.533 778.433 114.433 778.68 114.233 778.88C114.046 779.08 113.8 779.18 113.493 779.18ZM122.424 792.1C121.411 792.1 120.497 791.873 119.684 791.42C118.884 790.953 118.251 790.32 117.784 789.52C117.317 788.707 117.084 787.78 117.084 786.74C117.084 785.687 117.317 784.76 117.784 783.96C118.251 783.16 118.884 782.533 119.684 782.08C120.484 781.627 121.397 781.4 122.424 781.4C123.464 781.4 124.384 781.627 125.184 782.08C125.997 782.533 126.631 783.16 127.084 783.96C127.551 784.76 127.784 785.687 127.784 786.74C127.784 787.78 127.551 788.707 127.084 789.52C126.631 790.32 125.997 790.953 125.184 791.42C124.371 791.873 123.451 792.1 122.424 792.1ZM122.424 790.84C123.184 790.84 123.857 790.673 124.444 790.34C125.031 789.993 125.491 789.513 125.824 788.9C126.171 788.273 126.344 787.553 126.344 786.74C126.344 785.913 126.171 785.193 125.824 784.58C125.491 783.967 125.031 783.493 124.444 783.16C123.857 782.813 123.191 782.64 122.444 782.64C121.697 782.64 121.031 782.813 120.444 783.16C119.857 783.493 119.391 783.967 119.044 784.58C118.697 785.193 118.524 785.913 118.524 786.74C118.524 787.553 118.697 788.273 119.044 788.9C119.391 789.513 119.857 789.993 120.444 790.34C121.031 790.673 121.691 790.84 122.424 790.84ZM136.043 781.4C136.896 781.4 137.643 781.567 138.283 781.9C138.936 782.22 139.443 782.713 139.803 783.38C140.176 784.047 140.363 784.887 140.363 785.9V792H138.943V786.04C138.943 784.933 138.663 784.1 138.103 783.54C137.556 782.967 136.783 782.68 135.783 782.68C135.036 782.68 134.383 782.833 133.823 783.14C133.276 783.433 132.85 783.867 132.543 784.44C132.25 785 132.103 785.68 132.103 786.48V792H130.683V781.5H132.043V784.38L131.823 783.84C132.156 783.08 132.69 782.487 133.423 782.06C134.156 781.62 135.03 781.4 136.043 781.4ZM40.869 816.1C39.869 816.1 38.969 815.873 38.169 815.42C37.3823 814.967 36.7623 814.34 36.309 813.54C35.8557 812.727 35.629 811.793 35.629 810.74C35.629 809.673 35.8557 808.74 36.309 807.94C36.7623 807.14 37.3823 806.52 38.169 806.08C38.969 805.627 39.869 805.4 40.869 805.4C41.789 805.4 42.609 805.607 43.329 806.02C44.0623 806.433 44.6423 807.04 45.069 807.84C45.509 808.627 45.729 809.593 45.729 810.74C45.729 811.873 45.5157 812.84 45.089 813.64C44.6623 814.44 44.0823 815.053 43.349 815.48C42.629 815.893 41.8023 816.1 40.869 816.1ZM40.969 814.84C41.7157 814.84 42.3823 814.673 42.969 814.34C43.569 813.993 44.0357 813.513 44.369 812.9C44.7157 812.273 44.889 811.553 44.889 810.74C44.889 809.913 44.7157 809.193 44.369 808.58C44.0357 807.967 43.569 807.493 42.969 807.16C42.3823 806.813 41.7157 806.64 40.969 806.64C40.2357 806.64 39.5757 806.813 38.989 807.16C38.4023 807.493 37.9357 807.967 37.589 808.58C37.2423 809.193 37.069 809.913 37.069 810.74C37.069 811.553 37.2423 812.273 37.589 812.9C37.9357 813.513 38.4023 813.993 38.989 814.34C39.5757 814.673 40.2357 814.84 40.969 814.84ZM44.929 816V812.84L45.069 810.72L44.869 808.6V801.16H46.289V816H44.929ZM49.3837 806.04L50.2637 802.36L50.4237 803.2C50.117 803.2 49.857 803.107 49.6437 802.92C49.4437 802.72 49.3437 802.46 49.3437 802.14C49.3437 801.82 49.4437 801.56 49.6437 801.36C49.857 801.16 50.1103 801.06 50.4037 801.06C50.7103 801.06 50.957 801.167 51.1437 801.38C51.3437 801.58 51.4437 801.833 51.4437 802.14C51.4437 802.247 51.437 802.353 51.4237 802.46C51.4103 802.567 51.3837 802.687 51.3437 802.82C51.317 802.94 51.2703 803.093 51.2037 803.28L50.3437 806.04H49.3837ZM58.822 816.1C57.9286 816.1 57.1486 815.933 56.482 815.6C55.8153 815.267 55.2953 814.767 54.922 814.1C54.562 813.433 54.382 812.6 54.382 811.6V805.5H55.802V811.44C55.802 812.56 56.0753 813.407 56.622 813.98C57.182 814.54 57.962 814.82 58.962 814.82C59.6953 814.82 60.3286 814.673 60.862 814.38C61.4086 814.073 61.822 813.633 62.102 813.06C62.3953 812.487 62.542 811.8 62.542 811V805.5H63.962V816H62.602V813.12L62.822 813.64C62.4886 814.413 61.9686 815.02 61.262 815.46C60.5686 815.887 59.7553 816.1 58.822 816.1ZM71.2395 816.1C70.2528 816.1 69.4928 815.833 68.9595 815.3C68.4261 814.767 68.1595 814.013 68.1595 813.04V803.18H69.5795V812.96C69.5795 813.573 69.7328 814.047 70.0395 814.38C70.3595 814.713 70.8128 814.88 71.3995 814.88C72.0261 814.88 72.5461 814.7 72.9595 814.34L73.4595 815.36C73.1795 815.613 72.8395 815.8 72.4395 815.92C72.0528 816.04 71.6528 816.1 71.2395 816.1ZM66.2795 806.68V805.5H72.7795V806.68H66.2795ZM76.0445 816V805.5H77.4645V816H76.0445ZM76.7645 803.18C76.4711 803.18 76.2245 803.08 76.0245 802.88C75.8245 802.68 75.7245 802.44 75.7245 802.16C75.7245 801.88 75.8245 801.647 76.0245 801.46C76.2245 801.26 76.4711 801.16 76.7645 801.16C77.0578 801.16 77.3045 801.253 77.5045 801.44C77.7045 801.627 77.8045 801.86 77.8045 802.14C77.8045 802.433 77.7045 802.68 77.5045 802.88C77.3178 803.08 77.0711 803.18 76.7645 803.18ZM81.4155 816V801.16H82.8355V816H81.4155ZM86.7866 816V805.5H88.2066V816H86.7866ZM87.5066 803.18C87.2133 803.18 86.9666 803.08 86.7666 802.88C86.5666 802.68 86.4666 802.44 86.4666 802.16C86.4666 801.88 86.5666 801.647 86.7666 801.46C86.9666 801.26 87.2133 801.16 87.5066 801.16C87.8 801.16 88.0466 801.253 88.2466 801.44C88.4466 801.627 88.5466 801.86 88.5466 802.14C88.5466 802.433 88.4466 802.68 88.2466 802.88C88.06 803.08 87.8133 803.18 87.5066 803.18ZM94.9777 816.1C94.1111 816.1 93.2911 815.98 92.5177 815.74C91.7444 815.487 91.1377 815.173 90.6977 814.8L91.3377 813.68C91.7644 814 92.3111 814.28 92.9777 814.52C93.6444 814.747 94.3444 814.86 95.0777 814.86C96.0777 814.86 96.7977 814.707 97.2377 814.4C97.6777 814.08 97.8977 813.66 97.8977 813.14C97.8977 812.753 97.7711 812.453 97.5177 812.24C97.2777 812.013 96.9577 811.847 96.5577 811.74C96.1577 811.62 95.7111 811.52 95.2177 811.44C94.7244 811.36 94.2311 811.267 93.7377 811.16C93.2577 811.053 92.8177 810.9 92.4177 810.7C92.0177 810.487 91.6911 810.2 91.4377 809.84C91.1977 809.48 91.0777 809 91.0777 808.4C91.0777 807.827 91.2377 807.313 91.5577 806.86C91.8777 806.407 92.3444 806.053 92.9577 805.8C93.5844 805.533 94.3444 805.4 95.2377 805.4C95.9177 805.4 96.5977 805.493 97.2777 805.68C97.9577 805.853 98.5177 806.087 98.9577 806.38L98.3377 807.52C97.8711 807.2 97.3711 806.973 96.8377 806.84C96.3044 806.693 95.7711 806.62 95.2377 806.62C94.2911 806.62 93.5911 806.787 93.1377 807.12C92.6977 807.44 92.4777 807.853 92.4777 808.36C92.4777 808.76 92.5977 809.073 92.8377 809.3C93.0911 809.527 93.4177 809.707 93.8177 809.84C94.2311 809.96 94.6777 810.06 95.1577 810.14C95.6511 810.22 96.1377 810.32 96.6177 810.44C97.1111 810.547 97.5577 810.7 97.9577 810.9C98.3711 811.087 98.6977 811.36 98.9377 811.72C99.1911 812.067 99.3177 812.527 99.3177 813.1C99.3177 813.713 99.1444 814.247 98.7977 814.7C98.4644 815.14 97.9711 815.487 97.3177 815.74C96.6777 815.98 95.8977 816.1 94.9777 816.1ZM108.503 816V813.68L108.443 813.3V809.42C108.443 808.527 108.19 807.84 107.683 807.36C107.19 806.88 106.45 806.64 105.463 806.64C104.783 806.64 104.137 806.753 103.523 806.98C102.91 807.207 102.39 807.507 101.963 807.88L101.323 806.82C101.857 806.367 102.497 806.02 103.243 805.78C103.99 805.527 104.777 805.4 105.603 805.4C106.963 805.4 108.01 805.74 108.743 806.42C109.49 807.087 109.863 808.107 109.863 809.48V816H108.503ZM104.883 816.1C104.097 816.1 103.41 815.973 102.823 815.72C102.25 815.453 101.81 815.093 101.503 814.64C101.197 814.173 101.043 813.64 101.043 813.04C101.043 812.493 101.17 812 101.423 811.56C101.69 811.107 102.117 810.747 102.703 810.48C103.303 810.2 104.103 810.06 105.103 810.06H108.723V811.12H105.143C104.13 811.12 103.423 811.3 103.023 811.66C102.637 812.02 102.443 812.467 102.443 813C102.443 813.6 102.677 814.08 103.143 814.44C103.61 814.8 104.263 814.98 105.103 814.98C105.903 814.98 106.59 814.8 107.163 814.44C107.75 814.067 108.177 813.533 108.443 812.84L108.763 813.82C108.497 814.513 108.03 815.067 107.363 815.48C106.71 815.893 105.883 816.1 104.883 816.1ZM117.04 816.1C116.054 816.1 115.294 815.833 114.76 815.3C114.227 814.767 113.96 814.013 113.96 813.04V803.18H115.38V812.96C115.38 813.573 115.534 814.047 115.84 814.38C116.16 814.713 116.614 814.88 117.2 814.88C117.827 814.88 118.347 814.7 118.76 814.34L119.26 815.36C118.98 815.613 118.64 815.8 118.24 815.92C117.854 816.04 117.454 816.1 117.04 816.1ZM112.08 806.68V805.5H118.58V806.68H112.08ZM121.845 816V805.5H123.265V816H121.845ZM122.565 803.18C122.272 803.18 122.025 803.08 121.825 802.88C121.625 802.68 121.525 802.44 121.525 802.16C121.525 801.88 121.625 801.647 121.825 801.46C122.025 801.26 122.272 801.16 122.565 801.16C122.859 801.16 123.105 801.253 123.305 801.44C123.505 801.627 123.605 801.86 123.605 802.14C123.605 802.433 123.505 802.68 123.305 802.88C123.119 803.08 122.872 803.18 122.565 803.18ZM131.496 816.1C130.483 816.1 129.57 815.873 128.756 815.42C127.956 814.953 127.323 814.32 126.856 813.52C126.39 812.707 126.156 811.78 126.156 810.74C126.156 809.687 126.39 808.76 126.856 807.96C127.323 807.16 127.956 806.533 128.756 806.08C129.556 805.627 130.47 805.4 131.496 805.4C132.536 805.4 133.456 805.627 134.256 806.08C135.07 806.533 135.703 807.16 136.156 807.96C136.623 808.76 136.856 809.687 136.856 810.74C136.856 811.78 136.623 812.707 136.156 813.52C135.703 814.32 135.07 814.953 134.256 815.42C133.443 815.873 132.523 816.1 131.496 816.1ZM131.496 814.84C132.256 814.84 132.93 814.673 133.516 814.34C134.103 813.993 134.563 813.513 134.896 812.9C135.243 812.273 135.416 811.553 135.416 810.74C135.416 809.913 135.243 809.193 134.896 808.58C134.563 807.967 134.103 807.493 133.516 807.16C132.93 806.813 132.263 806.64 131.516 806.64C130.77 806.64 130.103 806.813 129.516 807.16C128.93 807.493 128.463 807.967 128.116 808.58C127.77 809.193 127.596 809.913 127.596 810.74C127.596 811.553 127.77 812.273 128.116 812.9C128.463 813.513 128.93 813.993 129.516 814.34C130.103 814.673 130.763 814.84 131.496 814.84ZM145.115 805.4C145.969 805.4 146.715 805.567 147.355 805.9C148.009 806.22 148.515 806.713 148.875 807.38C149.249 808.047 149.435 808.887 149.435 809.9V816H148.015V810.04C148.015 808.933 147.735 808.1 147.175 807.54C146.629 806.967 145.855 806.68 144.855 806.68C144.109 806.68 143.455 806.833 142.895 807.14C142.349 807.433 141.922 807.867 141.615 808.44C141.322 809 141.175 809.68 141.175 810.48V816H139.755V805.5H141.115V808.38L140.895 807.84C141.229 807.08 141.762 806.487 142.495 806.06C143.229 805.62 144.102 805.4 145.115 805.4Z" fill="black"/>
<path d="M1102.21 804V790H1107.45C1108.63 790 1109.65 790.193 1110.51 790.58C1111.36 790.953 1112.01 791.5 1112.47 792.22C1112.93 792.927 1113.17 793.787 1113.17 794.8C1113.17 795.787 1112.93 796.64 1112.47 797.36C1112.01 798.067 1111.36 798.613 1110.51 799C1109.65 799.373 1108.63 799.56 1107.45 799.56H1103.03L1103.69 798.88V804H1102.21ZM1111.77 804L1108.17 798.92H1109.77L1113.39 804H1111.77ZM1103.69 799L1103.03 798.3H1107.41C1108.81 798.3 1109.87 797.993 1110.59 797.38C1111.32 796.767 1111.69 795.907 1111.69 794.8C1111.69 793.68 1111.32 792.813 1110.59 792.2C1109.87 791.587 1108.81 791.28 1107.41 791.28H1103.03L1103.69 790.58V799ZM1120.82 804.1C1119.73 804.1 1118.77 803.873 1117.94 803.42C1117.11 802.953 1116.47 802.32 1116 801.52C1115.53 800.707 1115.3 799.78 1115.3 798.74C1115.3 797.7 1115.52 796.78 1115.96 795.98C1116.41 795.18 1117.03 794.553 1117.8 794.1C1118.59 793.633 1119.47 793.4 1120.44 793.4C1121.43 793.4 1122.3 793.627 1123.06 794.08C1123.83 794.52 1124.44 795.147 1124.88 795.96C1125.32 796.76 1125.54 797.687 1125.54 798.74C1125.54 798.807 1125.53 798.88 1125.52 798.96C1125.52 799.027 1125.52 799.1 1125.52 799.18H1116.38V798.12H1124.76L1124.2 798.54C1124.2 797.78 1124.03 797.107 1123.7 796.52C1123.38 795.92 1122.94 795.453 1122.38 795.12C1121.82 794.787 1121.17 794.62 1120.44 794.62C1119.72 794.62 1119.07 794.787 1118.5 795.12C1117.93 795.453 1117.48 795.92 1117.16 796.52C1116.84 797.12 1116.68 797.807 1116.68 798.58V798.8C1116.68 799.6 1116.85 800.307 1117.2 800.92C1117.56 801.52 1118.05 801.993 1118.68 802.34C1119.32 802.673 1120.05 802.84 1120.86 802.84C1121.5 802.84 1122.09 802.727 1122.64 802.5C1123.2 802.273 1123.68 801.927 1124.08 801.46L1124.88 802.38C1124.41 802.94 1123.83 803.367 1123.12 803.66C1122.43 803.953 1121.66 804.1 1120.82 804.1ZM1119.12 791.86L1121.86 789.38H1123.76L1120.52 791.86H1119.12ZM1131.25 804.1C1130.38 804.1 1129.56 803.98 1128.79 803.74C1128.02 803.487 1127.41 803.173 1126.97 802.8L1127.61 801.68C1128.04 802 1128.58 802.28 1129.25 802.52C1129.92 802.747 1130.62 802.86 1131.35 802.86C1132.35 802.86 1133.07 802.707 1133.51 802.4C1133.95 802.08 1134.17 801.66 1134.17 801.14C1134.17 800.753 1134.04 800.453 1133.79 800.24C1133.55 800.013 1133.23 799.847 1132.83 799.74C1132.43 799.62 1131.98 799.52 1131.49 799.44C1131 799.36 1130.5 799.267 1130.01 799.16C1129.53 799.053 1129.09 798.9 1128.69 798.7C1128.29 798.487 1127.96 798.2 1127.71 797.84C1127.47 797.48 1127.35 797 1127.35 796.4C1127.35 795.827 1127.51 795.313 1127.83 794.86C1128.15 794.407 1128.62 794.053 1129.23 793.8C1129.86 793.533 1130.62 793.4 1131.51 793.4C1132.19 793.4 1132.87 793.493 1133.55 793.68C1134.23 793.853 1134.79 794.087 1135.23 794.38L1134.61 795.52C1134.14 795.2 1133.64 794.973 1133.11 794.84C1132.58 794.693 1132.04 794.62 1131.51 794.62C1130.56 794.62 1129.86 794.787 1129.41 795.12C1128.97 795.44 1128.75 795.853 1128.75 796.36C1128.75 796.76 1128.87 797.073 1129.11 797.3C1129.36 797.527 1129.69 797.707 1130.09 797.84C1130.5 797.96 1130.95 798.06 1131.43 798.14C1131.92 798.22 1132.41 798.32 1132.89 798.44C1133.38 798.547 1133.83 798.7 1134.23 798.9C1134.64 799.087 1134.97 799.36 1135.21 799.72C1135.46 800.067 1135.59 800.527 1135.59 801.1C1135.59 801.713 1135.42 802.247 1135.07 802.7C1134.74 803.14 1134.24 803.487 1133.59 803.74C1132.95 803.98 1132.17 804.1 1131.25 804.1ZM1144.77 804V801.68L1144.71 801.3V797.42C1144.71 796.527 1144.46 795.84 1143.95 795.36C1143.46 794.88 1142.72 794.64 1141.73 794.64C1141.05 794.64 1140.41 794.753 1139.79 794.98C1139.18 795.207 1138.66 795.507 1138.23 795.88L1137.59 794.82C1138.13 794.367 1138.77 794.02 1139.51 793.78C1140.26 793.527 1141.05 793.4 1141.87 793.4C1143.23 793.4 1144.28 793.74 1145.01 794.42C1145.76 795.087 1146.13 796.107 1146.13 797.48V804H1144.77ZM1141.15 804.1C1140.37 804.1 1139.68 803.973 1139.09 803.72C1138.52 803.453 1138.08 803.093 1137.77 802.64C1137.47 802.173 1137.31 801.64 1137.31 801.04C1137.31 800.493 1137.44 800 1137.69 799.56C1137.96 799.107 1138.39 798.747 1138.97 798.48C1139.57 798.2 1140.37 798.06 1141.37 798.06H1144.99V799.12H1141.41C1140.4 799.12 1139.69 799.3 1139.29 799.66C1138.91 800.02 1138.71 800.467 1138.71 801C1138.71 801.6 1138.95 802.08 1139.41 802.44C1139.88 802.8 1140.53 802.98 1141.37 802.98C1142.17 802.98 1142.86 802.8 1143.43 802.44C1144.02 802.067 1144.45 801.533 1144.71 800.84L1145.03 801.82C1144.77 802.513 1144.3 803.067 1143.63 803.48C1142.98 803.893 1142.15 804.1 1141.15 804.1ZM1154.33 804.1C1153.44 804.1 1152.66 803.933 1151.99 803.6C1151.33 803.267 1150.81 802.767 1150.43 802.1C1150.07 801.433 1149.89 800.6 1149.89 799.6V793.5H1151.31V799.44C1151.31 800.56 1151.59 801.407 1152.13 801.98C1152.69 802.54 1153.47 802.82 1154.47 802.82C1155.21 802.82 1155.84 802.673 1156.37 802.38C1156.92 802.073 1157.33 801.633 1157.61 801.06C1157.91 800.487 1158.05 799.8 1158.05 799V793.5H1159.47V804H1158.11V801.12L1158.33 801.64C1158 802.413 1157.48 803.02 1156.77 803.46C1156.08 803.887 1155.27 804.1 1154.33 804.1ZM1161.83 804L1166.27 798.24L1166.25 798.94L1162.03 793.5H1163.63L1167.09 798L1166.49 797.98L1169.95 793.5H1171.51L1167.25 799L1167.27 798.24L1171.75 804H1170.13L1166.47 799.2L1167.03 799.28L1163.43 804H1161.83ZM1182.17 804.1C1181.3 804.1 1180.48 803.98 1179.71 803.74C1178.93 803.487 1178.33 803.173 1177.89 802.8L1178.53 801.68C1178.95 802 1179.5 802.28 1180.17 802.52C1180.83 802.747 1181.53 802.86 1182.27 802.86C1183.27 802.86 1183.99 802.707 1184.43 802.4C1184.87 802.08 1185.09 801.66 1185.09 801.14C1185.09 800.753 1184.96 800.453 1184.71 800.24C1184.47 800.013 1184.15 799.847 1183.75 799.74C1183.35 799.62 1182.9 799.52 1182.41 799.44C1181.91 799.36 1181.42 799.267 1180.93 799.16C1180.45 799.053 1180.01 798.9 1179.61 798.7C1179.21 798.487 1178.88 798.2 1178.63 797.84C1178.39 797.48 1178.27 797 1178.27 796.4C1178.27 795.827 1178.43 795.313 1178.75 794.86C1179.07 794.407 1179.53 794.053 1180.15 793.8C1180.77 793.533 1181.53 793.4 1182.43 793.4C1183.11 793.4 1183.79 793.493 1184.47 793.68C1185.15 793.853 1185.71 794.087 1186.15 794.38L1185.53 795.52C1185.06 795.2 1184.56 794.973 1184.03 794.84C1183.49 794.693 1182.96 794.62 1182.43 794.62C1181.48 794.62 1180.78 794.787 1180.33 795.12C1179.89 795.44 1179.67 795.853 1179.67 796.36C1179.67 796.76 1179.79 797.073 1180.03 797.3C1180.28 797.527 1180.61 797.707 1181.01 797.84C1181.42 797.96 1181.87 798.06 1182.35 798.14C1182.84 798.22 1183.33 798.32 1183.81 798.44C1184.3 798.547 1184.75 798.7 1185.15 798.9C1185.56 799.087 1185.89 799.36 1186.13 799.72C1186.38 800.067 1186.51 800.527 1186.51 801.1C1186.51 801.713 1186.33 802.247 1185.99 802.7C1185.65 803.14 1185.16 803.487 1184.51 803.74C1183.87 803.98 1183.09 804.1 1182.17 804.1ZM1193.39 804.1C1192.38 804.1 1191.47 803.873 1190.65 803.42C1189.85 802.953 1189.22 802.32 1188.75 801.52C1188.29 800.707 1188.05 799.78 1188.05 798.74C1188.05 797.687 1188.29 796.76 1188.75 795.96C1189.22 795.16 1189.85 794.533 1190.65 794.08C1191.45 793.627 1192.37 793.4 1193.39 793.4C1194.43 793.4 1195.35 793.627 1196.15 794.08C1196.97 794.533 1197.6 795.16 1198.05 795.96C1198.52 796.76 1198.75 797.687 1198.75 798.74C1198.75 799.78 1198.52 800.707 1198.05 801.52C1197.6 802.32 1196.97 802.953 1196.15 803.42C1195.34 803.873 1194.42 804.1 1193.39 804.1ZM1193.39 802.84C1194.15 802.84 1194.83 802.673 1195.41 802.34C1196 801.993 1196.46 801.513 1196.79 800.9C1197.14 800.273 1197.31 799.553 1197.31 798.74C1197.31 797.913 1197.14 797.193 1196.79 796.58C1196.46 795.967 1196 795.493 1195.41 795.16C1194.83 794.813 1194.16 794.64 1193.41 794.64C1192.67 794.64 1192 794.813 1191.41 795.16C1190.83 795.493 1190.36 795.967 1190.01 796.58C1189.67 797.193 1189.49 797.913 1189.49 798.74C1189.49 799.553 1189.67 800.273 1190.01 800.9C1190.36 801.513 1190.83 801.993 1191.41 802.34C1192 802.673 1192.66 802.84 1193.39 802.84ZM1206.01 804.1C1204.97 804.1 1204.04 803.873 1203.21 803.42C1202.4 802.953 1201.76 802.32 1201.29 801.52C1200.83 800.707 1200.59 799.78 1200.59 798.74C1200.59 797.687 1200.83 796.76 1201.29 795.96C1201.76 795.16 1202.4 794.533 1203.21 794.08C1204.04 793.627 1204.97 793.4 1206.01 793.4C1206.91 793.4 1207.71 793.573 1208.43 793.92C1209.15 794.267 1209.72 794.787 1210.13 795.48L1209.07 796.2C1208.71 795.667 1208.27 795.273 1207.73 795.02C1207.2 794.767 1206.62 794.64 1205.99 794.64C1205.25 794.64 1204.57 794.813 1203.97 795.16C1203.37 795.493 1202.9 795.967 1202.55 796.58C1202.21 797.193 1202.03 797.913 1202.03 798.74C1202.03 799.567 1202.21 800.287 1202.55 800.9C1202.9 801.513 1203.37 801.993 1203.97 802.34C1204.57 802.673 1205.25 802.84 1205.99 802.84C1206.62 802.84 1207.2 802.713 1207.73 802.46C1208.27 802.207 1208.71 801.82 1209.07 801.3L1210.13 802.02C1209.72 802.7 1209.15 803.22 1208.43 803.58C1207.71 803.927 1206.91 804.1 1206.01 804.1ZM1212.77 804V793.5H1214.19V804H1212.77ZM1213.49 791.18C1213.19 791.18 1212.95 791.08 1212.75 790.88C1212.55 790.68 1212.45 790.44 1212.45 790.16C1212.45 789.88 1212.55 789.647 1212.75 789.46C1212.95 789.26 1213.19 789.16 1213.49 789.16C1213.78 789.16 1214.03 789.253 1214.23 789.44C1214.43 789.627 1214.53 789.86 1214.53 790.14C1214.53 790.433 1214.43 790.68 1214.23 790.88C1214.04 791.08 1213.79 791.18 1213.49 791.18ZM1224.72 804V801.68L1224.66 801.3V797.42C1224.66 796.527 1224.4 795.84 1223.9 795.36C1223.4 794.88 1222.66 794.64 1221.68 794.64C1221 794.64 1220.35 794.753 1219.74 794.98C1219.12 795.207 1218.6 795.507 1218.18 795.88L1217.54 794.82C1218.07 794.367 1218.71 794.02 1219.46 793.78C1220.2 793.527 1220.99 793.4 1221.82 793.4C1223.18 793.4 1224.22 793.74 1224.96 794.42C1225.7 795.087 1226.08 796.107 1226.08 797.48V804H1224.72ZM1221.1 804.1C1220.31 804.1 1219.62 803.973 1219.04 803.72C1218.46 803.453 1218.02 803.093 1217.72 802.64C1217.41 802.173 1217.26 801.64 1217.26 801.04C1217.26 800.493 1217.38 800 1217.64 799.56C1217.9 799.107 1218.33 798.747 1218.92 798.48C1219.52 798.2 1220.32 798.06 1221.32 798.06H1224.94V799.12H1221.36C1220.34 799.12 1219.64 799.3 1219.24 799.66C1218.85 800.02 1218.66 800.467 1218.66 801C1218.66 801.6 1218.89 802.08 1219.36 802.44C1219.82 802.8 1220.48 802.98 1221.32 802.98C1222.12 802.98 1222.8 802.8 1223.38 802.44C1223.96 802.067 1224.39 801.533 1224.66 800.84L1224.98 801.82C1224.71 802.513 1224.24 803.067 1223.58 803.48C1222.92 803.893 1222.1 804.1 1221.1 804.1ZM1234.27 804.1C1233.38 804.1 1232.6 803.933 1231.93 803.6C1231.27 803.267 1230.75 802.767 1230.37 802.1C1230.01 801.433 1229.83 800.6 1229.83 799.6V793.5H1231.25V799.44C1231.25 800.56 1231.53 801.407 1232.07 801.98C1232.63 802.54 1233.41 802.82 1234.41 802.82C1235.15 802.82 1235.78 802.673 1236.31 802.38C1236.86 802.073 1237.27 801.633 1237.55 801.06C1237.85 800.487 1237.99 799.8 1237.99 799V793.5H1239.41V804H1238.05V801.12L1238.27 801.64C1237.94 802.413 1237.42 803.02 1236.71 803.46C1236.02 803.887 1235.21 804.1 1234.27 804.1ZM1241.77 804L1246.21 798.24L1246.19 798.94L1241.97 793.5H1243.57L1247.03 798L1246.43 797.98L1249.89 793.5H1251.45L1247.19 799L1247.21 798.24L1251.69 804H1250.07L1246.41 799.2L1246.97 799.28L1243.37 804H1241.77Z" fill="black"/>
<path d="M634.132 804V790H639.832C641.325 790 642.632 790.3 643.752 790.9C644.885 791.487 645.765 792.307 646.392 793.36C647.018 794.413 647.332 795.627 647.332 797C647.332 798.373 647.018 799.587 646.392 800.64C645.765 801.693 644.885 802.52 643.752 803.12C642.632 803.707 641.325 804 639.832 804H634.132ZM635.612 802.72H639.752C640.992 802.72 642.065 802.48 642.972 802C643.892 801.507 644.605 800.833 645.112 799.98C645.618 799.113 645.872 798.12 645.872 797C645.872 795.867 645.618 794.873 645.112 794.02C644.605 793.167 643.892 792.5 642.972 792.02C642.065 791.527 640.992 791.28 639.752 791.28H635.612V802.72ZM656.935 804V801.68L656.875 801.3V797.42C656.875 796.527 656.622 795.84 656.115 795.36C655.622 794.88 654.882 794.64 653.895 794.64C653.215 794.64 652.568 794.753 651.955 794.98C651.342 795.207 650.822 795.507 650.395 795.88L649.755 794.82C650.288 794.367 650.928 794.02 651.675 793.78C652.422 793.527 653.208 793.4 654.035 793.4C655.395 793.4 656.442 793.74 657.175 794.42C657.922 795.087 658.295 796.107 658.295 797.48V804H656.935ZM653.315 804.1C652.528 804.1 651.842 803.973 651.255 803.72C650.682 803.453 650.242 803.093 649.935 802.64C649.628 802.173 649.475 801.64 649.475 801.04C649.475 800.493 649.602 800 649.855 799.56C650.122 799.107 650.548 798.747 651.135 798.48C651.735 798.2 652.535 798.06 653.535 798.06H657.155V799.12H653.575C652.562 799.12 651.855 799.3 651.455 799.66C651.068 800.02 650.875 800.467 650.875 801C650.875 801.6 651.108 802.08 651.575 802.44C652.042 802.8 652.695 802.98 653.535 802.98C654.335 802.98 655.022 802.8 655.595 802.44C656.182 802.067 656.608 801.533 656.875 800.84L657.195 801.82C656.928 802.513 656.462 803.067 655.795 803.48C655.142 803.893 654.315 804.1 653.315 804.1ZM665.472 804.1C664.485 804.1 663.725 803.833 663.192 803.3C662.659 802.767 662.392 802.013 662.392 801.04V791.18H663.812V800.96C663.812 801.573 663.965 802.047 664.272 802.38C664.592 802.713 665.045 802.88 665.632 802.88C666.259 802.88 666.779 802.7 667.192 802.34L667.692 803.36C667.412 803.613 667.072 803.8 666.672 803.92C666.285 804.04 665.885 804.1 665.472 804.1ZM660.512 794.68V793.5H667.012V794.68H660.512ZM674.366 804.1C673.272 804.1 672.312 803.873 671.486 803.42C670.659 802.953 670.012 802.32 669.546 801.52C669.079 800.707 668.846 799.78 668.846 798.74C668.846 797.7 669.066 796.78 669.506 795.98C669.959 795.18 670.572 794.553 671.346 794.1C672.132 793.633 673.012 793.4 673.986 793.4C674.972 793.4 675.846 793.627 676.606 794.08C677.379 794.52 677.986 795.147 678.426 795.96C678.866 796.76 679.086 797.687 679.086 798.74C679.086 798.807 679.079 798.88 679.066 798.96C679.066 799.027 679.066 799.1 679.066 799.18H669.926V798.12H678.306L677.746 798.54C677.746 797.78 677.579 797.107 677.246 796.52C676.926 795.92 676.486 795.453 675.926 795.12C675.366 794.787 674.719 794.62 673.986 794.62C673.266 794.62 672.619 794.787 672.046 795.12C671.472 795.453 671.026 795.92 670.706 796.52C670.386 797.12 670.226 797.807 670.226 798.58V798.8C670.226 799.6 670.399 800.307 670.746 800.92C671.106 801.52 671.599 801.993 672.226 802.34C672.866 802.673 673.592 802.84 674.406 802.84C675.046 802.84 675.639 802.727 676.186 802.5C676.746 802.273 677.226 801.927 677.626 801.46L678.426 802.38C677.959 802.94 677.372 803.367 676.666 803.66C675.972 803.953 675.206 804.1 674.366 804.1ZM687.51 804V790H688.73L695.13 800.92H694.49L700.83 790H702.05V804H700.63V792.22H700.97L695.13 802.22H694.43L688.55 792.22H688.93V804H687.51ZM712.892 804V801.68L712.832 801.3V797.42C712.832 796.527 712.579 795.84 712.072 795.36C711.579 794.88 710.839 794.64 709.852 794.64C709.172 794.64 708.525 794.753 707.912 794.98C707.299 795.207 706.779 795.507 706.352 795.88L705.712 794.82C706.245 794.367 706.885 794.02 707.632 793.78C708.379 793.527 709.165 793.4 709.992 793.4C711.352 793.4 712.399 793.74 713.132 794.42C713.879 795.087 714.252 796.107 714.252 797.48V804H712.892ZM709.272 804.1C708.485 804.1 707.799 803.973 707.212 803.72C706.639 803.453 706.199 803.093 705.892 802.64C705.585 802.173 705.432 801.64 705.432 801.04C705.432 800.493 705.559 800 705.812 799.56C706.079 799.107 706.505 798.747 707.092 798.48C707.692 798.2 708.492 798.06 709.492 798.06H713.112V799.12H709.532C708.519 799.12 707.812 799.3 707.412 799.66C707.025 800.02 706.832 800.467 706.832 801C706.832 801.6 707.065 802.08 707.532 802.44C707.999 802.8 708.652 802.98 709.492 802.98C710.292 802.98 710.979 802.8 711.552 802.44C712.139 802.067 712.565 801.533 712.832 800.84L713.152 801.82C712.885 802.513 712.419 803.067 711.752 803.48C711.099 803.893 710.272 804.1 709.272 804.1ZM719.909 804.12C719.122 804.12 718.382 803.947 717.689 803.6C717.009 803.253 716.462 802.76 716.049 802.12L716.909 801.12C717.296 801.68 717.742 802.107 718.249 802.4C718.756 802.693 719.316 802.84 719.929 802.84C721.662 802.84 722.529 801.813 722.529 799.76V791.28H717.409V790H723.989V799.7C723.989 801.18 723.642 802.287 722.949 803.02C722.269 803.753 721.256 804.12 719.909 804.12Z" fill="black"/>
<rect x="583.5" y="634.5" width="229" height="47" fill="#D9D9D9" stroke="black"/>
<path d="M607.207 667.24C605.607 667.24 604.077 667 602.617 666.52C601.157 666.02 600.007 665.38 599.167 664.6L600.277 662.26C601.077 662.96 602.097 663.54 603.337 664C604.577 664.46 605.867 664.69 607.207 664.69C608.427 664.69 609.417 664.55 610.177 664.27C610.937 663.99 611.497 663.61 611.857 663.13C612.217 662.63 612.397 662.07 612.397 661.45C612.397 660.73 612.157 660.15 611.677 659.71C611.217 659.27 610.607 658.92 609.847 658.66C609.107 658.38 608.287 658.14 607.387 657.94C606.487 657.74 605.577 657.51 604.657 657.25C603.757 656.97 602.927 656.62 602.167 656.2C601.427 655.78 600.827 655.22 600.367 654.52C599.907 653.8 599.677 652.88 599.677 651.76C599.677 650.68 599.957 649.69 600.517 648.79C601.097 647.87 601.977 647.14 603.157 646.6C604.357 646.04 605.877 645.76 607.717 645.76C608.937 645.76 610.147 645.92 611.347 646.24C612.547 646.56 613.587 647.02 614.467 647.62L613.477 650.02C612.577 649.42 611.627 648.99 610.627 648.73C609.627 648.45 608.657 648.31 607.717 648.31C606.537 648.31 605.567 648.46 604.807 648.76C604.047 649.06 603.487 649.46 603.127 649.96C602.787 650.46 602.617 651.02 602.617 651.64C602.617 652.38 602.847 652.97 603.307 653.41C603.787 653.85 604.397 654.2 605.137 654.46C605.897 654.72 606.727 654.96 607.627 655.18C608.527 655.38 609.427 655.61 610.327 655.87C611.247 656.13 612.077 656.47 612.817 656.89C613.577 657.31 614.187 657.87 614.647 658.57C615.107 659.27 615.337 660.17 615.337 661.27C615.337 662.33 615.047 663.32 614.467 664.24C613.887 665.14 612.987 665.87 611.767 666.43C610.567 666.97 609.047 667.24 607.207 667.24ZM626.379 667.18C624.679 667.18 623.179 666.83 621.879 666.13C620.599 665.43 619.599 664.47 618.879 663.25C618.179 662.03 617.829 660.63 617.829 659.05C617.829 657.47 618.169 656.07 618.849 654.85C619.549 653.63 620.499 652.68 621.699 652C622.919 651.3 624.289 650.95 625.809 650.95C627.349 650.95 628.709 651.29 629.889 651.97C631.069 652.65 631.989 653.61 632.649 654.85C633.329 656.07 633.669 657.5 633.669 659.14C633.669 659.26 633.659 659.4 633.639 659.56C633.639 659.72 633.629 659.87 633.609 660.01H620.079V657.94H632.109L630.939 658.66C630.959 657.64 630.749 656.73 630.309 655.93C629.869 655.13 629.259 654.51 628.479 654.07C627.719 653.61 626.829 653.38 625.809 653.38C624.809 653.38 623.919 653.61 623.139 654.07C622.359 654.51 621.749 655.14 621.309 655.96C620.869 656.76 620.649 657.68 620.649 658.72V659.2C620.649 660.26 620.889 661.21 621.369 662.05C621.869 662.87 622.559 663.51 623.439 663.97C624.319 664.43 625.329 664.66 626.469 664.66C627.409 664.66 628.259 664.5 629.019 664.18C629.799 663.86 630.479 663.38 631.059 662.74L632.649 664.6C631.929 665.44 631.029 666.08 629.949 666.52C628.889 666.96 627.699 667.18 626.379 667.18ZM652.655 667.18C651.035 667.18 649.585 666.83 648.305 666.13C647.045 665.43 646.055 664.47 645.335 663.25C644.615 662.03 644.255 660.63 644.255 659.05C644.255 657.47 644.615 656.07 645.335 654.85C646.055 653.63 647.045 652.68 648.305 652C649.585 651.3 651.035 650.95 652.655 650.95C654.095 650.95 655.375 651.24 656.495 651.82C657.635 652.38 658.515 653.22 659.135 654.34L656.945 655.75C656.425 654.97 655.785 654.4 655.025 654.04C654.285 653.66 653.485 653.47 652.625 653.47C651.585 653.47 650.655 653.7 649.835 654.16C649.015 654.62 648.365 655.27 647.885 656.11C647.405 656.93 647.165 657.91 647.165 659.05C647.165 660.19 647.405 661.18 647.885 662.02C648.365 662.86 649.015 663.51 649.835 663.97C650.655 664.43 651.585 664.66 652.625 664.66C653.485 664.66 654.285 664.48 655.025 664.12C655.785 663.74 656.425 663.16 656.945 662.38L659.135 663.76C658.515 664.86 657.635 665.71 656.495 666.31C655.375 666.89 654.095 667.18 652.655 667.18ZM669.439 667.18C667.839 667.18 666.419 666.83 665.179 666.13C663.939 665.43 662.959 664.47 662.239 663.25C661.519 662.01 661.159 660.61 661.159 659.05C661.159 657.47 661.519 656.07 662.239 654.85C662.959 653.63 663.939 652.68 665.179 652C666.419 651.3 667.839 650.95 669.439 650.95C671.019 650.95 672.429 651.3 673.669 652C674.929 652.68 675.909 653.63 676.609 654.85C677.329 656.05 677.689 657.45 677.689 659.05C677.689 660.63 677.329 662.03 676.609 663.25C675.909 664.47 674.929 665.43 673.669 666.13C672.429 666.83 671.019 667.18 669.439 667.18ZM669.439 664.66C670.459 664.66 671.369 664.43 672.169 663.97C672.989 663.51 673.629 662.86 674.089 662.02C674.549 661.16 674.779 660.17 674.779 659.05C674.779 657.91 674.549 656.93 674.089 656.11C673.629 655.27 672.989 654.62 672.169 654.16C671.369 653.7 670.459 653.47 669.439 653.47C668.419 653.47 667.509 653.7 666.709 654.16C665.909 654.62 665.269 655.27 664.789 656.11C664.309 656.93 664.069 657.91 664.069 659.05C664.069 660.17 664.309 661.16 664.789 662.02C665.269 662.86 665.909 663.51 666.709 663.97C667.509 664.43 668.419 664.66 669.439 664.66ZM690.162 650.95C691.462 650.95 692.602 651.2 693.582 651.7C694.582 652.2 695.362 652.96 695.922 653.98C696.482 655 696.762 656.29 696.762 657.85V667H693.882V658.18C693.882 656.64 693.502 655.48 692.742 654.7C692.002 653.92 690.952 653.53 689.592 653.53C688.572 653.53 687.682 653.73 686.922 654.13C686.162 654.53 685.572 655.12 685.152 655.9C684.752 656.68 684.552 657.65 684.552 658.81V667H681.672V651.1H684.432V655.39L683.982 654.25C684.502 653.21 685.302 652.4 686.382 651.82C687.462 651.24 688.722 650.95 690.162 650.95ZM710.582 650.95C711.882 650.95 713.022 651.2 714.002 651.7C715.002 652.2 715.782 652.96 716.342 653.98C716.902 655 717.182 656.29 717.182 657.85V667H714.302V658.18C714.302 656.64 713.922 655.48 713.162 654.7C712.422 653.92 711.372 653.53 710.012 653.53C708.992 653.53 708.102 653.73 707.342 654.13C706.582 654.53 705.992 655.12 705.572 655.9C705.172 656.68 704.972 657.65 704.972 658.81V667H702.092V651.1H704.852V655.39L704.402 654.25C704.922 653.21 705.722 652.4 706.802 651.82C707.882 651.24 709.142 650.95 710.582 650.95ZM729.592 667.18C727.892 667.18 726.392 666.83 725.092 666.13C723.812 665.43 722.812 664.47 722.092 663.25C721.392 662.03 721.042 660.63 721.042 659.05C721.042 657.47 721.382 656.07 722.062 654.85C722.762 653.63 723.712 652.68 724.912 652C726.132 651.3 727.502 650.95 729.022 650.95C730.562 650.95 731.922 651.29 733.102 651.97C734.282 652.65 735.202 653.61 735.862 654.85C736.542 656.07 736.882 657.5 736.882 659.14C736.882 659.26 736.872 659.4 736.852 659.56C736.852 659.72 736.842 659.87 736.822 660.01H723.292V657.94H735.322L734.152 658.66C734.172 657.64 733.962 656.73 733.522 655.93C733.082 655.13 732.472 654.51 731.692 654.07C730.932 653.61 730.042 653.38 729.022 653.38C728.022 653.38 727.132 653.61 726.352 654.07C725.572 654.51 724.962 655.14 724.522 655.96C724.082 656.76 723.862 657.68 723.862 658.72V659.2C723.862 660.26 724.102 661.21 724.582 662.05C725.082 662.87 725.772 663.51 726.652 663.97C727.532 664.43 728.542 664.66 729.682 664.66C730.622 664.66 731.472 664.5 732.232 664.18C733.012 663.86 733.692 663.38 734.272 662.74L735.862 664.6C735.142 665.44 734.242 666.08 733.162 666.52C732.102 666.96 730.912 667.18 729.592 667.18ZM747.811 667.18C746.191 667.18 744.741 666.83 743.461 666.13C742.201 665.43 741.211 664.47 740.491 663.25C739.771 662.03 739.411 660.63 739.411 659.05C739.411 657.47 739.771 656.07 740.491 654.85C741.211 653.63 742.201 652.68 743.461 652C744.741 651.3 746.191 650.95 747.811 650.95C749.251 650.95 750.531 651.24 751.651 651.82C752.791 652.38 753.671 653.22 754.291 654.34L752.101 655.75C751.581 654.97 750.941 654.4 750.181 654.04C749.441 653.66 748.641 653.47 747.781 653.47C746.741 653.47 745.811 653.7 744.991 654.16C744.171 654.62 743.521 655.27 743.041 656.11C742.561 656.93 742.321 657.91 742.321 659.05C742.321 660.19 742.561 661.18 743.041 662.02C743.521 662.86 744.171 663.51 744.991 663.97C745.811 664.43 746.741 664.66 747.781 664.66C748.641 664.66 749.441 664.48 750.181 664.12C750.941 663.74 751.581 663.16 752.101 662.38L754.291 663.76C753.671 664.86 752.791 665.71 751.651 666.31C750.531 666.89 749.251 667.18 747.811 667.18ZM763.685 667.18C762.085 667.18 760.845 666.75 759.965 665.89C759.085 665.03 758.645 663.8 758.645 662.2V647.62H761.525V662.08C761.525 662.94 761.735 663.6 762.155 664.06C762.595 664.52 763.215 664.75 764.015 664.75C764.915 664.75 765.665 664.5 766.265 664L767.165 666.07C766.725 666.45 766.195 666.73 765.575 666.91C764.975 667.09 764.345 667.18 763.685 667.18ZM755.945 653.47V651.1H766.085V653.47H755.945ZM777.2 667.18C775.5 667.18 774 666.83 772.7 666.13C771.42 665.43 770.42 664.47 769.7 663.25C769 662.03 768.65 660.63 768.65 659.05C768.65 657.47 768.99 656.07 769.67 654.85C770.37 653.63 771.32 652.68 772.52 652C773.74 651.3 775.11 650.95 776.63 650.95C778.17 650.95 779.53 651.29 780.71 651.97C781.89 652.65 782.81 653.61 783.47 654.85C784.15 656.07 784.49 657.5 784.49 659.14C784.49 659.26 784.48 659.4 784.46 659.56C784.46 659.72 784.45 659.87 784.43 660.01H770.9V657.94H782.93L781.76 658.66C781.78 657.64 781.57 656.73 781.13 655.93C780.69 655.13 780.08 654.51 779.3 654.07C778.54 653.61 777.65 653.38 776.63 653.38C775.63 653.38 774.74 653.61 773.96 654.07C773.18 654.51 772.57 655.14 772.13 655.96C771.69 656.76 771.47 657.68 771.47 658.72V659.2C771.47 660.26 771.71 661.21 772.19 662.05C772.69 662.87 773.38 663.51 774.26 663.97C775.14 664.43 776.15 664.66 777.29 664.66C778.23 664.66 779.08 664.5 779.84 664.18C780.62 663.86 781.3 663.38 781.88 662.74L783.47 664.6C782.75 665.44 781.85 666.08 780.77 666.52C779.71 666.96 778.52 667.18 777.2 667.18ZM788.489 667V651.1H791.249V655.42L790.979 654.34C791.419 653.24 792.159 652.4 793.199 651.82C794.239 651.24 795.519 650.95 797.039 650.95V653.74C796.919 653.72 796.799 653.71 796.679 653.71C796.579 653.71 796.479 653.71 796.379 653.71C794.839 653.71 793.619 654.17 792.719 655.09C791.819 656.01 791.369 657.34 791.369 659.08V667H788.489Z" fill="black"/>
<rect x="648" y="352" width="227" height="27" fill="#D9D9D9"/>
<path d="M723.612 366.738V365.576H727.378V366.738H723.612ZM728.972 366.738V365.576H732.738V366.738H728.972ZM734.331 366.738V365.576H738.097V366.738H734.331ZM739.69 366.738V365.576H743.456V366.738H739.69ZM745.05 366.738V365.576H748.816V366.738H745.05ZM750.409 366.738V365.576H754.175V366.738H750.409ZM755.769 366.738V365.576H759.535V366.738H755.769ZM761.128 366.738V365.576H764.894V366.738H761.128ZM766.487 366.738V365.576H770.253V366.738H766.487ZM771.847 366.738V365.576H775.613V366.738H771.847ZM777.206 366.738V365.576H780.972V366.738H777.206ZM782.565 366.738V365.576H786.331V366.738H782.565ZM787.925 366.738V365.576H791.691V366.738H787.925ZM793.284 366.738V365.576H797.05V366.738H793.284Z" fill="black"/>
<path d="M452.743 372L457.863 360.8H459.031L464.151 372H462.903L458.199 361.488H458.679L453.975 372H452.743ZM454.759 369.008L455.111 368.048H461.623L461.975 369.008H454.759ZM469.03 372.08C468.23 372.08 467.51 371.899 466.87 371.536C466.24 371.173 465.744 370.672 465.382 370.032C465.019 369.381 464.838 368.635 464.838 367.792C464.838 366.939 465.019 366.192 465.382 365.552C465.744 364.912 466.24 364.416 466.87 364.064C467.51 363.701 468.23 363.52 469.03 363.52C469.766 363.52 470.422 363.685 470.998 364.016C471.584 364.347 472.048 364.832 472.39 365.472C472.742 366.101 472.918 366.875 472.918 367.792C472.918 368.699 472.747 369.472 472.406 370.112C472.064 370.752 471.6 371.243 471.014 371.584C470.438 371.915 469.776 372.08 469.03 372.08ZM469.11 371.072C469.707 371.072 470.24 370.939 470.71 370.672C471.19 370.395 471.563 370.011 471.83 369.52C472.107 369.019 472.246 368.443 472.246 367.792C472.246 367.131 472.107 366.555 471.83 366.064C471.563 365.573 471.19 365.195 470.71 364.928C470.24 364.651 469.707 364.512 469.11 364.512C468.523 364.512 467.995 364.651 467.526 364.928C467.056 365.195 466.683 365.573 466.406 366.064C466.128 366.555 465.99 367.131 465.99 367.792C465.99 368.443 466.128 369.019 466.406 369.52C466.683 370.011 467.056 370.395 467.526 370.672C467.995 370.939 468.523 371.072 469.11 371.072ZM472.278 372V369.472L472.39 367.776L472.23 366.08V360.128H473.366V372H472.278ZM476.529 372V363.6H477.617V365.888L477.505 365.488C477.74 364.848 478.135 364.363 478.689 364.032C479.244 363.691 479.932 363.52 480.753 363.52V364.624C480.711 364.624 480.668 364.624 480.625 364.624C480.583 364.613 480.54 364.608 480.497 364.608C479.612 364.608 478.919 364.88 478.417 365.424C477.916 365.957 477.665 366.72 477.665 367.712V372H476.529ZM486.316 372.08C485.441 372.08 484.673 371.899 484.012 371.536C483.351 371.163 482.833 370.656 482.46 370.016C482.087 369.365 481.9 368.624 481.9 367.792C481.9 366.96 482.076 366.224 482.428 365.584C482.791 364.944 483.281 364.443 483.9 364.08C484.529 363.707 485.233 363.52 486.012 363.52C486.801 363.52 487.5 363.701 488.108 364.064C488.727 364.416 489.212 364.917 489.564 365.568C489.916 366.208 490.092 366.949 490.092 367.792C490.092 367.845 490.087 367.904 490.076 367.968C490.076 368.021 490.076 368.08 490.076 368.144H482.764V367.296H489.468L489.02 367.632C489.02 367.024 488.887 366.485 488.62 366.016C488.364 365.536 488.012 365.163 487.564 364.896C487.116 364.629 486.599 364.496 486.012 364.496C485.436 364.496 484.919 364.629 484.46 364.896C484.001 365.163 483.644 365.536 483.388 366.016C483.132 366.496 483.004 367.045 483.004 367.664V367.84C483.004 368.48 483.143 369.045 483.42 369.536C483.708 370.016 484.103 370.395 484.604 370.672C485.116 370.939 485.697 371.072 486.348 371.072C486.86 371.072 487.335 370.981 487.772 370.8C488.22 370.619 488.604 370.341 488.924 369.968L489.564 370.704C489.191 371.152 488.721 371.493 488.156 371.728C487.601 371.963 486.988 372.08 486.316 372.08ZM494.66 372.08C493.967 372.08 493.311 371.984 492.692 371.792C492.074 371.589 491.588 371.339 491.236 371.04L491.748 370.144C492.09 370.4 492.527 370.624 493.06 370.816C493.594 370.997 494.154 371.088 494.74 371.088C495.54 371.088 496.116 370.965 496.468 370.72C496.82 370.464 496.996 370.128 496.996 369.712C496.996 369.403 496.895 369.163 496.692 368.992C496.5 368.811 496.244 368.677 495.924 368.592C495.604 368.496 495.247 368.416 494.852 368.352C494.458 368.288 494.063 368.213 493.668 368.128C493.284 368.043 492.932 367.92 492.612 367.76C492.292 367.589 492.031 367.36 491.828 367.072C491.636 366.784 491.54 366.4 491.54 365.92C491.54 365.461 491.668 365.051 491.924 364.688C492.18 364.325 492.554 364.043 493.044 363.84C493.546 363.627 494.154 363.52 494.868 363.52C495.412 363.52 495.956 363.595 496.5 363.744C497.044 363.883 497.492 364.069 497.844 364.304L497.348 365.216C496.975 364.96 496.575 364.779 496.148 364.672C495.722 364.555 495.295 364.496 494.868 364.496C494.111 364.496 493.551 364.629 493.188 364.896C492.836 365.152 492.66 365.483 492.66 365.888C492.66 366.208 492.756 366.459 492.948 366.64C493.151 366.821 493.412 366.965 493.732 367.072C494.063 367.168 494.42 367.248 494.804 367.312C495.199 367.376 495.588 367.456 495.972 367.552C496.367 367.637 496.724 367.76 497.044 367.92C497.375 368.069 497.636 368.288 497.828 368.576C498.031 368.853 498.132 369.221 498.132 369.68C498.132 370.171 497.994 370.597 497.716 370.96C497.45 371.312 497.055 371.589 496.532 371.792C496.02 371.984 495.396 372.08 494.66 372.08ZM502.473 372.08C501.779 372.08 501.123 371.984 500.505 371.792C499.886 371.589 499.401 371.339 499.049 371.04L499.561 370.144C499.902 370.4 500.339 370.624 500.873 370.816C501.406 370.997 501.966 371.088 502.553 371.088C503.353 371.088 503.929 370.965 504.281 370.72C504.633 370.464 504.809 370.128 504.809 369.712C504.809 369.403 504.707 369.163 504.505 368.992C504.313 368.811 504.057 368.677 503.737 368.592C503.417 368.496 503.059 368.416 502.665 368.352C502.27 368.288 501.875 368.213 501.481 368.128C501.097 368.043 500.745 367.92 500.425 367.76C500.105 367.589 499.843 367.36 499.641 367.072C499.449 366.784 499.353 366.4 499.353 365.92C499.353 365.461 499.481 365.051 499.737 364.688C499.993 364.325 500.366 364.043 500.857 363.84C501.358 363.627 501.966 363.52 502.681 363.52C503.225 363.52 503.769 363.595 504.313 363.744C504.857 363.883 505.305 364.069 505.657 364.304L505.161 365.216C504.787 364.96 504.387 364.779 503.961 364.672C503.534 364.555 503.107 364.496 502.681 364.496C501.923 364.496 501.363 364.629 501.001 364.896C500.649 365.152 500.473 365.483 500.473 365.888C500.473 366.208 500.569 366.459 500.761 366.64C500.963 366.821 501.225 366.965 501.545 367.072C501.875 367.168 502.233 367.248 502.617 367.312C503.011 367.376 503.401 367.456 503.785 367.552C504.179 367.637 504.537 367.76 504.857 367.92C505.187 368.069 505.449 368.288 505.641 368.576C505.843 368.853 505.945 369.221 505.945 369.68C505.945 370.171 505.806 370.597 505.529 370.96C505.262 371.312 504.867 371.589 504.345 371.792C503.833 371.984 503.209 372.08 502.473 372.08ZM511.597 372.08C510.723 372.08 509.955 371.899 509.293 371.536C508.632 371.163 508.115 370.656 507.741 370.016C507.368 369.365 507.181 368.624 507.181 367.792C507.181 366.96 507.357 366.224 507.709 365.584C508.072 364.944 508.563 364.443 509.181 364.08C509.811 363.707 510.515 363.52 511.293 363.52C512.083 363.52 512.781 363.701 513.389 364.064C514.008 364.416 514.493 364.917 514.845 365.568C515.197 366.208 515.373 366.949 515.373 367.792C515.373 367.845 515.368 367.904 515.357 367.968C515.357 368.021 515.357 368.08 515.357 368.144H508.045V367.296H514.749L514.301 367.632C514.301 367.024 514.168 366.485 513.901 366.016C513.645 365.536 513.293 365.163 512.845 364.896C512.397 364.629 511.88 364.496 511.293 364.496C510.717 364.496 510.2 364.629 509.741 364.896C509.283 365.163 508.925 365.536 508.669 366.016C508.413 366.496 508.285 367.045 508.285 367.664V367.84C508.285 368.48 508.424 369.045 508.701 369.536C508.989 370.016 509.384 370.395 509.885 370.672C510.397 370.939 510.979 371.072 511.629 371.072C512.141 371.072 512.616 370.981 513.053 370.8C513.501 370.619 513.885 370.341 514.205 369.968L514.845 370.704C514.472 371.152 514.003 371.493 513.437 371.728C512.883 371.963 512.269 372.08 511.597 372.08ZM532.369 363.52C533.052 363.52 533.644 363.653 534.145 363.92C534.657 364.176 535.052 364.571 535.329 365.104C535.617 365.637 535.761 366.309 535.761 367.12V372H534.625V367.232C534.625 366.347 534.412 365.68 533.985 365.232C533.569 364.773 532.977 364.544 532.209 364.544C531.633 364.544 531.132 364.667 530.705 364.912C530.289 365.147 529.964 365.493 529.729 365.952C529.505 366.4 529.393 366.944 529.393 367.584V372H528.257V367.232C528.257 366.347 528.044 365.68 527.617 365.232C527.19 364.773 526.593 364.544 525.825 364.544C525.26 364.544 524.764 364.667 524.337 364.912C523.91 365.147 523.58 365.493 523.345 365.952C523.121 366.4 523.009 366.944 523.009 367.584V372H521.873V363.6H522.961V365.872L522.785 365.472C523.041 364.864 523.452 364.389 524.017 364.048C524.593 363.696 525.27 363.52 526.049 363.52C526.87 363.52 527.569 363.728 528.145 364.144C528.721 364.549 529.094 365.163 529.265 365.984L528.817 365.808C529.062 365.125 529.494 364.576 530.113 364.16C530.742 363.733 531.494 363.52 532.369 363.52ZM544.106 372V370.144L544.058 369.84V366.736C544.058 366.021 543.855 365.472 543.45 365.088C543.055 364.704 542.463 364.512 541.674 364.512C541.13 364.512 540.612 364.603 540.122 364.784C539.631 364.965 539.215 365.205 538.874 365.504L538.362 364.656C538.788 364.293 539.3 364.016 539.898 363.824C540.495 363.621 541.124 363.52 541.786 363.52C542.874 363.52 543.711 363.792 544.298 364.336C544.895 364.869 545.194 365.685 545.194 366.784V372H544.106ZM541.21 372.08C540.58 372.08 540.031 371.979 539.562 371.776C539.103 371.563 538.751 371.275 538.506 370.912C538.26 370.539 538.138 370.112 538.138 369.632C538.138 369.195 538.239 368.8 538.442 368.448C538.655 368.085 538.996 367.797 539.466 367.584C539.946 367.36 540.586 367.248 541.386 367.248H544.282V368.096H541.418C540.607 368.096 540.042 368.24 539.722 368.528C539.412 368.816 539.258 369.173 539.258 369.6C539.258 370.08 539.444 370.464 539.818 370.752C540.191 371.04 540.714 371.184 541.386 371.184C542.026 371.184 542.575 371.04 543.034 370.752C543.503 370.453 543.844 370.027 544.058 369.472L544.314 370.256C544.1 370.811 543.727 371.253 543.194 371.584C542.671 371.915 542.01 372.08 541.21 372.08ZM548.279 372V363.6H549.415V372H548.279ZM548.855 361.744C548.621 361.744 548.423 361.664 548.263 361.504C548.103 361.344 548.023 361.152 548.023 360.928C548.023 360.704 548.103 360.517 548.263 360.368C548.423 360.208 548.621 360.128 548.855 360.128C549.09 360.128 549.287 360.203 549.447 360.352C549.607 360.501 549.687 360.688 549.687 360.912C549.687 361.147 549.607 361.344 549.447 361.504C549.298 361.664 549.101 361.744 548.855 361.744ZM552.576 372V360.128H553.712V372H552.576Z" fill="black"/>
<rect x="650" y="482" width="227" height="27" fill="#D9D9D9"/>
<path d="M725.612 496.738V495.576H729.378V496.738H725.612ZM730.972 496.738V495.576H734.738V496.738H730.972ZM736.331 496.738V495.576H740.097V496.738H736.331ZM741.69 496.738V495.576H745.456V496.738H741.69ZM747.05 496.738V495.576H750.816V496.738H747.05ZM752.409 496.738V495.576H756.175V496.738H752.409ZM757.769 496.738V495.576H761.535V496.738H757.769ZM763.128 496.738V495.576H766.894V496.738H763.128ZM768.487 496.738V495.576H772.253V496.738H768.487ZM773.847 496.738V495.576H777.613V496.738H773.847ZM779.206 496.738V495.576H782.972V496.738H779.206ZM784.565 496.738V495.576H788.331V496.738H784.565ZM789.925 496.738V495.576H793.691V496.738H789.925ZM795.284 496.738V495.576H799.05V496.738H795.284Z" fill="black"/>
<path d="M458.722 500V488.8H459.698L464.818 497.536H464.306L469.378 488.8H470.354V500H469.218V490.576H469.49L464.818 498.576H464.258L459.554 490.576H459.858V500H458.722ZM477.188 500.08C476.377 500.08 475.646 499.899 474.996 499.536C474.356 499.163 473.849 498.656 473.476 498.016C473.102 497.365 472.916 496.624 472.916 495.792C472.916 494.949 473.102 494.208 473.476 493.568C473.849 492.928 474.356 492.427 474.996 492.064C475.636 491.701 476.366 491.52 477.188 491.52C478.02 491.52 478.756 491.701 479.396 492.064C480.046 492.427 480.553 492.928 480.916 493.568C481.289 494.208 481.476 494.949 481.476 495.792C481.476 496.624 481.289 497.365 480.916 498.016C480.553 498.656 480.046 499.163 479.396 499.536C478.745 499.899 478.009 500.08 477.188 500.08ZM477.188 499.072C477.796 499.072 478.334 498.939 478.804 498.672C479.273 498.395 479.641 498.011 479.908 497.52C480.185 497.019 480.324 496.443 480.324 495.792C480.324 495.131 480.185 494.555 479.908 494.064C479.641 493.573 479.273 493.195 478.804 492.928C478.334 492.651 477.801 492.512 477.204 492.512C476.606 492.512 476.073 492.651 475.604 492.928C475.134 493.195 474.761 493.573 474.484 494.064C474.206 494.555 474.068 495.131 474.068 495.792C474.068 496.443 474.206 497.019 474.484 497.52C474.761 498.011 475.134 498.395 475.604 498.672C476.073 498.939 476.601 499.072 477.188 499.072ZM486.451 500.08C485.662 500.08 485.054 499.867 484.627 499.44C484.2 499.013 483.987 498.411 483.987 497.632V489.744H485.123V497.568C485.123 498.059 485.246 498.437 485.491 498.704C485.747 498.971 486.11 499.104 486.579 499.104C487.08 499.104 487.496 498.96 487.827 498.672L488.227 499.488C488.003 499.691 487.731 499.84 487.411 499.936C487.102 500.032 486.782 500.08 486.451 500.08ZM482.483 492.544V491.6H487.683V492.544H482.483ZM497.826 500.08C497.026 500.08 496.306 499.899 495.666 499.536C495.037 499.173 494.541 498.672 494.178 498.032C493.816 497.381 493.634 496.635 493.634 495.792C493.634 494.939 493.816 494.192 494.178 493.552C494.541 492.912 495.037 492.416 495.666 492.064C496.306 491.701 497.026 491.52 497.826 491.52C498.562 491.52 499.218 491.685 499.794 492.016C500.381 492.347 500.845 492.832 501.186 493.472C501.538 494.101 501.714 494.875 501.714 495.792C501.714 496.699 501.544 497.472 501.202 498.112C500.861 498.752 500.397 499.243 499.81 499.584C499.234 499.915 498.573 500.08 497.826 500.08ZM497.906 499.072C498.504 499.072 499.037 498.939 499.506 498.672C499.986 498.395 500.36 498.011 500.626 497.52C500.904 497.019 501.042 496.443 501.042 495.792C501.042 495.131 500.904 494.555 500.626 494.064C500.36 493.573 499.986 493.195 499.506 492.928C499.037 492.651 498.504 492.512 497.906 492.512C497.32 492.512 496.792 492.651 496.322 492.928C495.853 493.195 495.48 493.573 495.202 494.064C494.925 494.555 494.786 495.131 494.786 495.792C494.786 496.443 494.925 497.019 495.202 497.52C495.48 498.011 495.853 498.395 496.322 498.672C496.792 498.939 497.32 499.072 497.906 499.072ZM501.074 500V497.472L501.186 495.776L501.026 494.08V488.128H502.162V500H501.074ZM508.894 500.08C508.02 500.08 507.252 499.899 506.59 499.536C505.929 499.163 505.412 498.656 505.038 498.016C504.665 497.365 504.478 496.624 504.478 495.792C504.478 494.96 504.654 494.224 505.006 493.584C505.369 492.944 505.86 492.443 506.478 492.08C507.108 491.707 507.812 491.52 508.59 491.52C509.38 491.52 510.078 491.701 510.686 492.064C511.305 492.416 511.79 492.917 512.142 493.568C512.494 494.208 512.67 494.949 512.67 495.792C512.67 495.845 512.665 495.904 512.654 495.968C512.654 496.021 512.654 496.08 512.654 496.144H505.342V495.296H512.046L511.598 495.632C511.598 495.024 511.465 494.485 511.198 494.016C510.942 493.536 510.59 493.163 510.142 492.896C509.694 492.629 509.177 492.496 508.59 492.496C508.014 492.496 507.497 492.629 507.038 492.896C506.58 493.163 506.222 493.536 505.966 494.016C505.71 494.496 505.582 495.045 505.582 495.664V495.84C505.582 496.48 505.721 497.045 505.998 497.536C506.286 498.016 506.681 498.395 507.182 498.672C507.694 498.939 508.276 499.072 508.926 499.072C509.438 499.072 509.913 498.981 510.35 498.8C510.798 498.619 511.182 498.341 511.502 497.968L512.142 498.704C511.769 499.152 511.3 499.493 510.734 499.728C510.18 499.963 509.566 500.08 508.894 500.08ZM523.506 500.08C522.781 500.08 522.125 499.915 521.538 499.584C520.951 499.243 520.482 498.757 520.13 498.128C519.789 497.488 519.618 496.709 519.618 495.792C519.618 494.875 519.789 494.101 520.13 493.472C520.471 492.832 520.935 492.347 521.522 492.016C522.109 491.685 522.77 491.52 523.506 491.52C524.306 491.52 525.021 491.701 525.65 492.064C526.29 492.416 526.791 492.917 527.154 493.568C527.517 494.208 527.698 494.949 527.698 495.792C527.698 496.645 527.517 497.392 527.154 498.032C526.791 498.672 526.29 499.173 525.65 499.536C525.021 499.899 524.306 500.08 523.506 500.08ZM519.17 503.104V491.6H520.258V494.128L520.146 495.808L520.306 497.504V503.104H519.17ZM523.426 499.072C524.023 499.072 524.557 498.939 525.026 498.672C525.495 498.395 525.869 498.011 526.146 497.52C526.423 497.019 526.562 496.443 526.562 495.792C526.562 495.141 526.423 494.571 526.146 494.08C525.869 493.589 525.495 493.205 525.026 492.928C524.557 492.651 524.023 492.512 523.426 492.512C522.829 492.512 522.29 492.651 521.81 492.928C521.341 493.205 520.967 493.589 520.69 494.08C520.423 494.571 520.29 495.141 520.29 495.792C520.29 496.443 520.423 497.019 520.69 497.52C520.967 498.011 521.341 498.395 521.81 498.672C522.29 498.939 522.829 499.072 523.426 499.072ZM535.231 500V498.144L535.183 497.84V494.736C535.183 494.021 534.98 493.472 534.575 493.088C534.18 492.704 533.588 492.512 532.799 492.512C532.255 492.512 531.737 492.603 531.247 492.784C530.756 492.965 530.34 493.205 529.999 493.504L529.487 492.656C529.913 492.293 530.425 492.016 531.023 491.824C531.62 491.621 532.249 491.52 532.911 491.52C533.999 491.52 534.836 491.792 535.423 492.336C536.02 492.869 536.319 493.685 536.319 494.784V500H535.231ZM532.335 500.08C531.705 500.08 531.156 499.979 530.687 499.776C530.228 499.563 529.876 499.275 529.631 498.912C529.385 498.539 529.263 498.112 529.263 497.632C529.263 497.195 529.364 496.8 529.567 496.448C529.78 496.085 530.121 495.797 530.591 495.584C531.071 495.36 531.711 495.248 532.511 495.248H535.407V496.096H532.543C531.732 496.096 531.167 496.24 530.847 496.528C530.537 496.816 530.383 497.173 530.383 497.6C530.383 498.08 530.569 498.464 530.943 498.752C531.316 499.04 531.839 499.184 532.511 499.184C533.151 499.184 533.7 499.04 534.159 498.752C534.628 498.453 534.969 498.027 535.183 497.472L535.439 498.256C535.225 498.811 534.852 499.253 534.319 499.584C533.796 499.915 533.135 500.08 532.335 500.08ZM541.66 500.08C540.967 500.08 540.311 499.984 539.692 499.792C539.074 499.589 538.588 499.339 538.236 499.04L538.748 498.144C539.09 498.4 539.527 498.624 540.06 498.816C540.594 498.997 541.154 499.088 541.74 499.088C542.54 499.088 543.116 498.965 543.468 498.72C543.82 498.464 543.996 498.128 543.996 497.712C543.996 497.403 543.895 497.163 543.692 496.992C543.5 496.811 543.244 496.677 542.924 496.592C542.604 496.496 542.247 496.416 541.852 496.352C541.458 496.288 541.063 496.213 540.668 496.128C540.284 496.043 539.932 495.92 539.612 495.76C539.292 495.589 539.031 495.36 538.828 495.072C538.636 494.784 538.54 494.4 538.54 493.92C538.54 493.461 538.668 493.051 538.924 492.688C539.18 492.325 539.554 492.043 540.044 491.84C540.546 491.627 541.154 491.52 541.868 491.52C542.412 491.52 542.956 491.595 543.5 491.744C544.044 491.883 544.492 492.069 544.844 492.304L544.348 493.216C543.975 492.96 543.575 492.779 543.148 492.672C542.722 492.555 542.295 492.496 541.868 492.496C541.111 492.496 540.551 492.629 540.188 492.896C539.836 493.152 539.66 493.483 539.66 493.888C539.66 494.208 539.756 494.459 539.948 494.64C540.151 494.821 540.412 494.965 540.732 495.072C541.063 495.168 541.42 495.248 541.804 495.312C542.199 495.376 542.588 495.456 542.972 495.552C543.367 495.637 543.724 495.76 544.044 495.92C544.375 496.069 544.636 496.288 544.828 496.576C545.031 496.853 545.132 497.221 545.132 497.68C545.132 498.171 544.994 498.597 544.716 498.96C544.45 499.312 544.055 499.589 543.532 499.792C543.02 499.984 542.396 500.08 541.66 500.08ZM549.473 500.08C548.779 500.08 548.123 499.984 547.505 499.792C546.886 499.589 546.401 499.339 546.049 499.04L546.561 498.144C546.902 498.4 547.339 498.624 547.873 498.816C548.406 498.997 548.966 499.088 549.553 499.088C550.353 499.088 550.929 498.965 551.281 498.72C551.633 498.464 551.809 498.128 551.809 497.712C551.809 497.403 551.707 497.163 551.505 496.992C551.313 496.811 551.057 496.677 550.737 496.592C550.417 496.496 550.059 496.416 549.665 496.352C549.27 496.288 548.875 496.213 548.481 496.128C548.097 496.043 547.745 495.92 547.425 495.76C547.105 495.589 546.843 495.36 546.641 495.072C546.449 494.784 546.353 494.4 546.353 493.92C546.353 493.461 546.481 493.051 546.737 492.688C546.993 492.325 547.366 492.043 547.857 491.84C548.358 491.627 548.966 491.52 549.681 491.52C550.225 491.52 550.769 491.595 551.313 491.744C551.857 491.883 552.305 492.069 552.657 492.304L552.161 493.216C551.787 492.96 551.387 492.779 550.961 492.672C550.534 492.555 550.107 492.496 549.681 492.496C548.923 492.496 548.363 492.629 548.001 492.896C547.649 493.152 547.473 493.483 547.473 493.888C547.473 494.208 547.569 494.459 547.761 494.64C547.963 494.821 548.225 494.965 548.545 495.072C548.875 495.168 549.233 495.248 549.617 495.312C550.011 495.376 550.401 495.456 550.785 495.552C551.179 495.637 551.537 495.76 551.857 495.92C552.187 496.069 552.449 496.288 552.641 496.576C552.843 496.853 552.945 497.221 552.945 497.68C552.945 498.171 552.806 498.597 552.529 498.96C552.262 499.312 551.867 499.589 551.345 499.792C550.833 499.984 550.209 500.08 549.473 500.08ZM558.597 500.08C557.723 500.08 556.955 499.899 556.293 499.536C555.632 499.163 555.115 498.656 554.741 498.016C554.368 497.365 554.181 496.624 554.181 495.792C554.181 494.96 554.357 494.224 554.709 493.584C555.072 492.944 555.563 492.443 556.181 492.08C556.811 491.707 557.515 491.52 558.293 491.52C559.083 491.52 559.781 491.701 560.389 492.064C561.008 492.416 561.493 492.917 561.845 493.568C562.197 494.208 562.373 494.949 562.373 495.792C562.373 495.845 562.368 495.904 562.357 495.968C562.357 496.021 562.357 496.08 562.357 496.144H555.045V495.296H561.749L561.301 495.632C561.301 495.024 561.168 494.485 560.901 494.016C560.645 493.536 560.293 493.163 559.845 492.896C559.397 492.629 558.88 492.496 558.293 492.496C557.717 492.496 557.2 492.629 556.741 492.896C556.283 493.163 555.925 493.536 555.669 494.016C555.413 494.496 555.285 495.045 555.285 495.664V495.84C555.285 496.48 555.424 497.045 555.701 497.536C555.989 498.016 556.384 498.395 556.885 498.672C557.397 498.939 557.979 499.072 558.629 499.072C559.141 499.072 559.616 498.981 560.053 498.8C560.501 498.619 560.885 498.341 561.205 497.968L561.845 498.704C561.472 499.152 561.003 499.493 560.437 499.728C559.883 499.963 559.269 500.08 558.597 500.08Z" fill="black"/>
<path d="M547.411 244.32C545.278 244.32 543.305 243.973 541.491 243.28C539.705 242.56 538.145 241.56 536.811 240.28C535.505 238.973 534.478 237.453 533.731 235.72C532.985 233.987 532.611 232.08 532.611 230C532.611 227.92 532.985 226.013 533.731 224.28C534.478 222.547 535.518 221.04 536.851 219.76C538.185 218.453 539.745 217.453 541.531 216.76C543.345 216.04 545.318 215.68 547.451 215.68C549.611 215.68 551.598 216.053 553.411 216.8C555.251 217.52 556.811 218.6 558.091 220.04L555.491 222.56C554.425 221.44 553.225 220.613 551.891 220.08C550.558 219.52 549.131 219.24 547.611 219.24C546.038 219.24 544.571 219.507 543.211 220.04C541.878 220.573 540.718 221.32 539.731 222.28C538.745 223.24 537.971 224.387 537.411 225.72C536.878 227.027 536.611 228.453 536.611 230C536.611 231.547 536.878 232.987 537.411 234.32C537.971 235.627 538.745 236.76 539.731 237.72C540.718 238.68 541.878 239.427 543.211 239.96C544.571 240.493 546.038 240.76 547.611 240.76C549.131 240.76 550.558 240.493 551.891 239.96C553.225 239.4 554.425 238.547 555.491 237.4L558.091 239.92C556.811 241.36 555.251 242.453 553.411 243.2C551.598 243.947 549.598 244.32 547.411 244.32ZM571.419 244.24C569.286 244.24 567.393 243.773 565.739 242.84C564.086 241.907 562.779 240.627 561.819 239C560.859 237.347 560.379 235.48 560.379 233.4C560.379 231.293 560.859 229.427 561.819 227.8C562.779 226.173 564.086 224.907 565.739 224C567.393 223.067 569.286 222.6 571.419 222.6C573.526 222.6 575.406 223.067 577.059 224C578.739 224.907 580.046 226.173 580.979 227.8C581.939 229.4 582.419 231.267 582.419 233.4C582.419 235.507 581.939 237.373 580.979 239C580.046 240.627 578.739 241.907 577.059 242.84C575.406 243.773 573.526 244.24 571.419 244.24ZM571.419 240.88C572.779 240.88 573.993 240.573 575.059 239.96C576.153 239.347 577.006 238.48 577.619 237.36C578.233 236.213 578.539 234.893 578.539 233.4C578.539 231.88 578.233 230.573 577.619 229.48C577.006 228.36 576.153 227.493 575.059 226.88C573.993 226.267 572.779 225.96 571.419 225.96C570.059 225.96 568.846 226.267 567.779 226.88C566.713 227.493 565.859 228.36 565.219 229.48C564.579 230.573 564.259 231.88 564.259 233.4C564.259 234.893 564.579 236.213 565.219 237.36C565.859 238.48 566.713 239.347 567.779 239.96C568.846 240.573 570.059 240.88 571.419 240.88ZM599.05 222.6C600.783 222.6 602.303 222.933 603.61 223.6C604.943 224.267 605.983 225.28 606.73 226.64C607.477 228 607.85 229.72 607.85 231.8V244H604.01V232.24C604.01 230.187 603.503 228.64 602.49 227.6C601.503 226.56 600.103 226.04 598.29 226.04C596.93 226.04 595.743 226.307 594.73 226.84C593.717 227.373 592.93 228.16 592.37 229.2C591.837 230.24 591.57 231.533 591.57 233.08V244H587.73V222.8H591.41V228.52L590.81 227C591.503 225.613 592.57 224.533 594.01 223.76C595.45 222.987 597.13 222.6 599.05 222.6ZM626.276 222.6C628.01 222.6 629.53 222.933 630.836 223.6C632.17 224.267 633.21 225.28 633.956 226.64C634.703 228 635.076 229.72 635.076 231.8V244H631.236V232.24C631.236 230.187 630.73 228.64 629.716 227.6C628.73 226.56 627.33 226.04 625.516 226.04C624.156 226.04 622.97 226.307 621.956 226.84C620.943 227.373 620.156 228.16 619.596 229.2C619.063 230.24 618.796 231.533 618.796 233.08V244H614.956V222.8H618.636V228.52L618.036 227C618.73 225.613 619.796 224.533 621.236 223.76C622.676 222.987 624.356 222.6 626.276 222.6ZM651.623 244.24C649.356 244.24 647.356 243.773 645.623 242.84C643.916 241.907 642.583 240.627 641.623 239C640.69 237.373 640.223 235.507 640.223 233.4C640.223 231.293 640.676 229.427 641.583 227.8C642.516 226.173 643.783 224.907 645.383 224C647.01 223.067 648.836 222.6 650.863 222.6C652.916 222.6 654.73 223.053 656.303 223.96C657.876 224.867 659.103 226.147 659.983 227.8C660.89 229.427 661.343 231.333 661.343 233.52C661.343 233.68 661.33 233.867 661.303 234.08C661.303 234.293 661.29 234.493 661.263 234.68H643.223V231.92H659.263L657.703 232.88C657.73 231.52 657.45 230.307 656.863 229.24C656.276 228.173 655.463 227.347 654.423 226.76C653.41 226.147 652.223 225.84 650.863 225.84C649.53 225.84 648.343 226.147 647.303 226.76C646.263 227.347 645.45 228.187 644.863 229.28C644.276 230.347 643.983 231.573 643.983 232.96V233.6C643.983 235.013 644.303 236.28 644.943 237.4C645.61 238.493 646.53 239.347 647.703 239.96C648.876 240.573 650.223 240.88 651.743 240.88C652.996 240.88 654.13 240.667 655.143 240.24C656.183 239.813 657.09 239.173 657.863 238.32L659.983 240.8C659.023 241.92 657.823 242.773 656.383 243.36C654.97 243.947 653.383 244.24 651.623 244.24ZM663.009 244L672.129 232.16L672.089 234.12L663.409 222.8H667.689L674.329 231.52H672.689L679.329 222.8H683.529L674.729 234.2L674.769 232.16L683.969 244H679.609L672.609 234.72L674.169 234.96L667.289 244H663.009ZM688.16 244V222.8H692V244H688.16ZM690.08 218.72C689.333 218.72 688.706 218.48 688.2 218C687.72 217.52 687.48 216.933 687.48 216.24C687.48 215.52 687.72 214.92 688.2 214.44C688.706 213.96 689.333 213.72 690.08 213.72C690.826 213.72 691.44 213.96 691.92 214.44C692.426 214.893 692.68 215.467 692.68 216.16C692.68 216.88 692.44 217.493 691.96 218C691.48 218.48 690.853 218.72 690.08 218.72ZM708.411 244.24C706.278 244.24 704.385 243.773 702.731 242.84C701.078 241.907 699.771 240.627 698.811 239C697.851 237.347 697.371 235.48 697.371 233.4C697.371 231.293 697.851 229.427 698.811 227.8C699.771 226.173 701.078 224.907 702.731 224C704.385 223.067 706.278 222.6 708.411 222.6C710.518 222.6 712.398 223.067 714.051 224C715.731 224.907 717.038 226.173 717.971 227.8C718.931 229.4 719.411 231.267 719.411 233.4C719.411 235.507 718.931 237.373 717.971 239C717.038 240.627 715.731 241.907 714.051 242.84C712.398 243.773 710.518 244.24 708.411 244.24ZM708.411 240.88C709.771 240.88 710.985 240.573 712.051 239.96C713.145 239.347 713.998 238.48 714.611 237.36C715.225 236.213 715.531 234.893 715.531 233.4C715.531 231.88 715.225 230.573 714.611 229.48C713.998 228.36 713.145 227.493 712.051 226.88C710.985 226.267 709.771 225.96 708.411 225.96C707.051 225.96 705.838 226.267 704.771 226.88C703.705 227.493 702.851 228.36 702.211 229.48C701.571 230.573 701.251 231.88 701.251 233.4C701.251 234.893 701.571 236.213 702.211 237.36C702.851 238.48 703.705 239.347 704.771 239.96C705.838 240.573 707.051 240.88 708.411 240.88ZM736.042 222.6C737.775 222.6 739.295 222.933 740.602 223.6C741.935 224.267 742.975 225.28 743.722 226.64C744.469 228 744.842 229.72 744.842 231.8V244H741.002V232.24C741.002 230.187 740.495 228.64 739.482 227.6C738.495 226.56 737.095 226.04 735.282 226.04C733.922 226.04 732.735 226.307 731.722 226.84C730.709 227.373 729.922 228.16 729.362 229.2C728.829 230.24 728.562 231.533 728.562 233.08V244H724.722V222.8H728.402V228.52L727.802 227C728.495 225.613 729.562 224.533 731.002 223.76C732.442 222.987 734.122 222.6 736.042 222.6Z" fill="black"/>
</g>
<defs>
<clipPath id="clip0_2194_55">
<rect width="1280" height="832" fill="white"/>
</clipPath>
</defs>
</svg>
