<svg width="1280" height="832" viewBox="0 0 1280 832" fill="none" xmlns="http://www.w3.org/2000/svg">
<rect width="1280" height="832" fill="#E5E5E5"/>
<rect width="1280" height="832" fill="white"/>
<rect x="306" y="587" width="176" height="48" fill="#208BE8"/>
<path d="M330.092 622.24C328.492 622.24 327.012 621.98 325.652 621.46C324.312 620.92 323.142 620.17 322.142 619.21C321.162 618.23 320.392 617.09 319.832 615.79C319.272 614.49 318.992 613.06 318.992 611.5C318.992 609.94 319.272 608.51 319.832 607.21C320.392 605.91 321.172 604.78 322.172 603.82C323.172 602.84 324.342 602.09 325.682 601.57C327.042 601.03 328.522 600.76 330.122 600.76C331.742 600.76 333.232 601.04 334.592 601.6C335.972 602.14 337.142 602.95 338.102 604.03L336.152 605.92C335.352 605.08 334.452 604.46 333.452 604.06C332.452 603.64 331.382 603.43 330.242 603.43C329.062 603.43 327.962 603.63 326.942 604.03C325.942 604.43 325.072 604.99 324.332 605.71C323.592 606.43 323.012 607.29 322.592 608.29C322.192 609.27 321.992 610.34 321.992 611.5C321.992 612.66 322.192 613.74 322.592 614.74C323.012 615.72 323.592 616.57 324.332 617.29C325.072 618.01 325.942 618.57 326.942 618.97C327.962 619.37 329.062 619.57 330.242 619.57C331.382 619.57 332.452 619.37 333.452 618.97C334.452 618.55 335.352 617.91 336.152 617.05L338.102 618.94C337.142 620.02 335.972 620.84 334.592 621.4C333.232 621.96 331.732 622.24 330.092 622.24ZM348.098 622.18C346.498 622.18 345.078 621.83 343.838 621.13C342.598 620.43 341.618 619.47 340.898 618.25C340.178 617.01 339.818 615.61 339.818 614.05C339.818 612.47 340.178 611.07 340.898 609.85C341.618 608.63 342.598 607.68 343.838 607C345.078 606.3 346.498 605.95 348.098 605.95C349.678 605.95 351.088 606.3 352.328 607C353.588 607.68 354.568 608.63 355.268 609.85C355.988 611.05 356.348 612.45 356.348 614.05C356.348 615.63 355.988 617.03 355.268 618.25C354.568 619.47 353.588 620.43 352.328 621.13C351.088 621.83 349.678 622.18 348.098 622.18ZM348.098 619.66C349.118 619.66 350.028 619.43 350.828 618.97C351.648 618.51 352.288 617.86 352.748 617.02C353.208 616.16 353.438 615.17 353.438 614.05C353.438 612.91 353.208 611.93 352.748 611.11C352.288 610.27 351.648 609.62 350.828 609.16C350.028 608.7 349.118 608.47 348.098 608.47C347.078 608.47 346.168 608.7 345.368 609.16C344.568 609.62 343.928 610.27 343.448 611.11C342.968 611.93 342.728 612.91 342.728 614.05C342.728 615.17 342.968 616.16 343.448 617.02C343.928 617.86 344.568 618.51 345.368 618.97C346.168 619.43 347.078 619.66 348.098 619.66ZM368.821 605.95C370.121 605.95 371.261 606.2 372.241 606.7C373.241 607.2 374.021 607.96 374.581 608.98C375.141 610 375.421 611.29 375.421 612.85V622H372.541V613.18C372.541 611.64 372.161 610.48 371.401 609.7C370.661 608.92 369.611 608.53 368.251 608.53C367.231 608.53 366.341 608.73 365.581 609.13C364.821 609.53 364.231 610.12 363.811 610.9C363.411 611.68 363.211 612.65 363.211 613.81V622H360.331V606.1H363.091V610.39L362.641 609.25C363.161 608.21 363.961 607.4 365.041 606.82C366.121 606.24 367.381 605.95 368.821 605.95ZM381.171 622V604.69C381.171 603.13 381.621 601.89 382.521 600.97C383.441 600.03 384.741 599.56 386.421 599.56C387.041 599.56 387.631 599.64 388.191 599.8C388.771 599.94 389.261 600.17 389.661 600.49L388.791 602.68C388.491 602.44 388.151 602.26 387.771 602.14C387.391 602 386.991 601.93 386.571 601.93C385.731 601.93 385.091 602.17 384.651 602.65C384.211 603.11 383.991 603.8 383.991 604.72V606.85L384.051 608.17V622H381.171ZM378.471 608.47V606.1H388.611V608.47H378.471ZM391.341 622V606.1H394.221V622H391.341ZM392.781 603.04C392.221 603.04 391.751 602.86 391.371 602.5C391.011 602.14 390.831 601.7 390.831 601.18C390.831 600.64 391.011 600.19 391.371 599.83C391.751 599.47 392.221 599.29 392.781 599.29C393.341 599.29 393.801 599.47 394.161 599.83C394.541 600.17 394.731 600.6 394.731 601.12C394.731 601.66 394.551 602.12 394.191 602.5C393.831 602.86 393.361 603.04 392.781 603.04ZM399.706 622V606.1H402.466V610.42L402.196 609.34C402.636 608.24 403.376 607.4 404.416 606.82C405.456 606.24 406.736 605.95 408.256 605.95V608.74C408.136 608.72 408.016 608.71 407.896 608.71C407.796 608.71 407.696 608.71 407.596 608.71C406.056 608.71 404.836 609.17 403.936 610.09C403.036 611.01 402.586 612.34 402.586 614.08V622H399.706ZM431.695 605.95C432.975 605.95 434.105 606.2 435.085 606.7C436.065 607.2 436.825 607.96 437.365 608.98C437.925 610 438.205 611.29 438.205 612.85V622H435.325V613.18C435.325 611.64 434.965 610.48 434.245 609.7C433.525 608.92 432.515 608.53 431.215 608.53C430.255 608.53 429.415 608.73 428.695 609.13C427.975 609.53 427.415 610.12 427.015 610.9C426.635 611.68 426.445 612.65 426.445 613.81V622H423.565V613.18C423.565 611.64 423.205 610.48 422.485 609.7C421.785 608.92 420.775 608.53 419.455 608.53C418.515 608.53 417.685 608.73 416.965 609.13C416.245 609.53 415.685 610.12 415.285 610.9C414.885 611.68 414.685 612.65 414.685 613.81V622H411.805V606.1H414.565V610.33L414.115 609.25C414.615 608.21 415.385 607.4 416.425 606.82C417.465 606.24 418.675 605.95 420.055 605.95C421.575 605.95 422.885 606.33 423.985 607.09C425.085 607.83 425.805 608.96 426.145 610.48L424.975 610C425.455 608.78 426.295 607.8 427.495 607.06C428.695 606.32 430.095 605.95 431.695 605.95ZM450.584 622.18C448.884 622.18 447.384 621.83 446.084 621.13C444.804 620.43 443.804 619.47 443.084 618.25C442.384 617.03 442.034 615.63 442.034 614.05C442.034 612.47 442.374 611.07 443.054 609.85C443.754 608.63 444.704 607.68 445.904 607C447.124 606.3 448.494 605.95 450.014 605.95C451.554 605.95 452.914 606.29 454.094 606.97C455.274 607.65 456.194 608.61 456.854 609.85C457.534 611.07 457.874 612.5 457.874 614.14C457.874 614.26 457.864 614.4 457.844 614.56C457.844 614.72 457.834 614.87 457.814 615.01H444.284V612.94H456.314L455.144 613.66C455.164 612.64 454.954 611.73 454.514 610.93C454.074 610.13 453.464 609.51 452.684 609.07C451.924 608.61 451.034 608.38 450.014 608.38C449.014 608.38 448.124 608.61 447.344 609.07C446.564 609.51 445.954 610.14 445.514 610.96C445.074 611.76 444.854 612.68 444.854 613.72V614.2C444.854 615.26 445.094 616.21 445.574 617.05C446.074 617.87 446.764 618.51 447.644 618.97C448.524 619.43 449.534 619.66 450.674 619.66C451.614 619.66 452.464 619.5 453.224 619.18C454.004 618.86 454.684 618.38 455.264 617.74L456.854 619.6C456.134 620.44 455.234 621.08 454.154 621.52C453.094 621.96 451.904 622.18 450.584 622.18ZM461.874 622V606.1H464.634V610.42L464.364 609.34C464.804 608.24 465.544 607.4 466.584 606.82C467.624 606.24 468.904 605.95 470.424 605.95V608.74C470.304 608.72 470.184 608.71 470.064 608.71C469.964 608.71 469.864 608.71 469.764 608.71C468.224 608.71 467.004 609.17 466.104 610.09C465.204 611.01 464.754 612.34 464.754 614.08V622H461.874Z" fill="white"/>
<rect x="795" y="587" width="176" height="48" fill="#208BE8"/>
<path d="M822.386 622L831.896 601H834.866L844.406 622H841.256L832.766 602.68H833.966L825.476 622H822.386ZM826.436 616.75L827.246 614.35H839.066L839.936 616.75H826.436ZM855.609 605.95C856.909 605.95 858.049 606.2 859.029 606.7C860.029 607.2 860.809 607.96 861.369 608.98C861.929 610 862.209 611.29 862.209 612.85V622H859.329V613.18C859.329 611.64 858.949 610.48 858.189 609.7C857.449 608.92 856.399 608.53 855.039 608.53C854.019 608.53 853.129 608.73 852.369 609.13C851.609 609.53 851.019 610.12 850.599 610.9C850.199 611.68 849.999 612.65 849.999 613.81V622H847.119V606.1H849.879V610.39L849.429 609.25C849.949 608.21 850.749 607.4 851.829 606.82C852.909 606.24 854.169 605.95 855.609 605.95ZM876.029 605.95C877.329 605.95 878.469 606.2 879.449 606.7C880.449 607.2 881.229 607.96 881.789 608.98C882.349 610 882.629 611.29 882.629 612.85V622H879.749V613.18C879.749 611.64 879.369 610.48 878.609 609.7C877.869 608.92 876.819 608.53 875.459 608.53C874.439 608.53 873.549 608.73 872.789 609.13C872.029 609.53 871.439 610.12 871.019 610.9C870.619 611.68 870.419 612.65 870.419 613.81V622H867.539V606.1H870.299V610.39L869.849 609.25C870.369 608.21 871.169 607.4 872.249 606.82C873.329 606.24 874.589 605.95 876.029 605.95ZM894.649 622.18C893.289 622.18 892.089 621.93 891.049 621.43C890.029 620.93 889.229 620.17 888.649 619.15C888.089 618.11 887.809 616.81 887.809 615.25V606.1H890.689V614.92C890.689 616.48 891.059 617.65 891.799 618.43C892.559 619.21 893.619 619.6 894.979 619.6C895.979 619.6 896.849 619.4 897.589 619C898.329 618.58 898.899 617.98 899.299 617.2C899.699 616.4 899.899 615.44 899.899 614.32V606.1H902.779V622H900.049V617.71L900.499 618.85C899.979 619.91 899.199 620.73 898.159 621.31C897.119 621.89 895.949 622.18 894.649 622.18ZM908.261 622V599.74H911.141V622H908.261ZM923.72 622.18C922.02 622.18 920.52 621.83 919.22 621.13C917.94 620.43 916.94 619.47 916.22 618.25C915.52 617.03 915.17 615.63 915.17 614.05C915.17 612.47 915.51 611.07 916.19 609.85C916.89 608.63 917.84 607.68 919.04 607C920.26 606.3 921.63 605.95 923.15 605.95C924.69 605.95 926.05 606.29 927.23 606.97C928.41 607.65 929.33 608.61 929.99 609.85C930.67 611.07 931.01 612.5 931.01 614.14C931.01 614.26 931 614.4 930.98 614.56C930.98 614.72 930.97 614.87 930.95 615.01H917.42V612.94H929.45L928.28 613.66C928.3 612.64 928.09 611.73 927.65 610.93C927.21 610.13 926.6 609.51 925.82 609.07C925.06 608.61 924.17 608.38 923.15 608.38C922.15 608.38 921.26 608.61 920.48 609.07C919.7 609.51 919.09 610.14 918.65 610.96C918.21 611.76 917.99 612.68 917.99 613.72V614.2C917.99 615.26 918.23 616.21 918.71 617.05C919.21 617.87 919.9 618.51 920.78 618.97C921.66 619.43 922.67 619.66 923.81 619.66C924.75 619.66 925.6 619.5 926.36 619.18C927.14 618.86 927.82 618.38 928.4 617.74L929.99 619.6C929.27 620.44 928.37 621.08 927.29 621.52C926.23 621.96 925.04 622.18 923.72 622.18ZM935.009 622V606.1H937.769V610.42L937.499 609.34C937.939 608.24 938.679 607.4 939.719 606.82C940.759 606.24 942.039 605.95 943.559 605.95V608.74C943.439 608.72 943.319 608.71 943.199 608.71C943.099 608.71 942.999 608.71 942.899 608.71C941.359 608.71 940.139 609.17 939.239 610.09C938.339 611.01 937.889 612.34 937.889 614.08V622H935.009Z" fill="white"/>
<path d="M313.902 393.068H327.222V395.336H313.902V393.068ZM314.19 404.696H329.346V407H311.526V381.8H328.806V384.104H314.19V404.696ZM314.262 379.748L318.906 375.284H321.498L326.142 379.748H323.766L319.194 375.932H321.21L316.638 379.748H314.262ZM340.517 407.18C338.741 407.18 337.373 406.7 336.413 405.74C335.453 404.78 334.973 403.424 334.973 401.672V383.924H337.529V401.528C337.529 402.632 337.805 403.484 338.357 404.084C338.933 404.684 339.749 404.984 340.805 404.984C341.933 404.984 342.869 404.66 343.613 404.012L344.513 405.848C344.009 406.304 343.397 406.64 342.677 406.856C341.981 407.072 341.261 407.18 340.517 407.18ZM331.589 390.224V388.1H343.289V390.224H331.589ZM356.526 407.18C354.558 407.18 352.83 406.772 351.342 405.956C349.854 405.116 348.69 403.976 347.85 402.536C347.01 401.072 346.59 399.404 346.59 397.532C346.59 395.66 346.986 394.004 347.778 392.564C348.594 391.124 349.698 389.996 351.09 389.18C352.506 388.34 354.09 387.92 355.842 387.92C357.618 387.92 359.19 388.328 360.558 389.144C361.95 389.936 363.042 391.064 363.834 392.528C364.626 393.968 365.022 395.636 365.022 397.532C365.022 397.652 365.01 397.784 364.986 397.928C364.986 398.048 364.986 398.18 364.986 398.324H348.534V396.416H363.618L362.61 397.172C362.61 395.804 362.31 394.592 361.71 393.536C361.134 392.456 360.342 391.616 359.334 391.016C358.326 390.416 357.162 390.116 355.842 390.116C354.546 390.116 353.382 390.416 352.35 391.016C351.318 391.616 350.514 392.456 349.938 393.536C349.362 394.616 349.074 395.852 349.074 397.244V397.64C349.074 399.08 349.386 400.352 350.01 401.456C350.658 402.536 351.546 403.388 352.674 404.012C353.826 404.612 355.134 404.912 356.598 404.912C357.75 404.912 358.818 404.708 359.802 404.3C360.81 403.892 361.674 403.268 362.394 402.428L363.834 404.084C362.994 405.092 361.938 405.86 360.666 406.388C359.418 406.916 358.038 407.18 356.526 407.18ZM375.3 407.18C373.74 407.18 372.264 406.964 370.872 406.532C369.48 406.076 368.388 405.512 367.596 404.84L368.748 402.824C369.516 403.4 370.5 403.904 371.7 404.336C372.9 404.744 374.16 404.948 375.48 404.948C377.28 404.948 378.576 404.672 379.368 404.12C380.16 403.544 380.556 402.788 380.556 401.852C380.556 401.156 380.328 400.616 379.872 400.232C379.44 399.824 378.864 399.524 378.144 399.332C377.424 399.116 376.62 398.936 375.732 398.792C374.844 398.648 373.956 398.48 373.068 398.288C372.204 398.096 371.412 397.82 370.692 397.46C369.972 397.076 369.384 396.56 368.928 395.912C368.496 395.264 368.28 394.4 368.28 393.32C368.28 392.288 368.568 391.364 369.144 390.548C369.72 389.732 370.56 389.096 371.664 388.64C372.792 388.16 374.16 387.92 375.768 387.92C376.992 387.92 378.216 388.088 379.44 388.424C380.664 388.736 381.672 389.156 382.464 389.684L381.348 391.736C380.508 391.16 379.608 390.752 378.648 390.512C377.688 390.248 376.728 390.116 375.768 390.116C374.064 390.116 372.804 390.416 371.988 391.016C371.196 391.592 370.8 392.336 370.8 393.248C370.8 393.968 371.016 394.532 371.448 394.94C371.904 395.348 372.492 395.672 373.212 395.912C373.956 396.128 374.76 396.308 375.624 396.452C376.512 396.596 377.388 396.776 378.252 396.992C379.14 397.184 379.944 397.46 380.664 397.82C381.408 398.156 381.996 398.648 382.428 399.296C382.884 399.92 383.112 400.748 383.112 401.78C383.112 402.884 382.8 403.844 382.176 404.66C381.576 405.452 380.688 406.076 379.512 406.532C378.36 406.964 376.956 407.18 375.3 407.18ZM386.398 398.36V396.128H395.83V398.36H386.398ZM405.987 407L397.599 388.1H400.263L407.967 405.632H406.707L414.519 388.1H417.039L408.615 407H405.987ZM427.815 407.18C425.991 407.18 424.347 406.772 422.883 405.956C421.443 405.116 420.303 403.976 419.463 402.536C418.623 401.072 418.203 399.404 418.203 397.532C418.203 395.636 418.623 393.968 419.463 392.528C420.303 391.088 421.443 389.96 422.883 389.144C424.323 388.328 425.967 387.92 427.815 387.92C429.687 387.92 431.343 388.328 432.783 389.144C434.247 389.96 435.387 391.088 436.203 392.528C437.043 393.968 437.463 395.636 437.463 397.532C437.463 399.404 437.043 401.072 436.203 402.536C435.387 403.976 434.247 405.116 432.783 405.956C431.319 406.772 429.663 407.18 427.815 407.18ZM427.815 404.912C429.183 404.912 430.395 404.612 431.451 404.012C432.507 403.388 433.335 402.524 433.935 401.42C434.559 400.292 434.871 398.996 434.871 397.532C434.871 396.044 434.559 394.748 433.935 393.644C433.335 392.54 432.507 391.688 431.451 391.088C430.395 390.464 429.195 390.152 427.851 390.152C426.507 390.152 425.307 390.464 424.251 391.088C423.195 391.688 422.355 392.54 421.731 393.644C421.107 394.748 420.795 396.044 420.795 397.532C420.795 398.996 421.107 400.292 421.731 401.42C422.355 402.524 423.195 403.388 424.251 404.012C425.307 404.612 426.495 404.912 427.815 404.912ZM450.493 407.18C448.885 407.18 447.481 406.88 446.281 406.28C445.081 405.68 444.145 404.78 443.473 403.58C442.825 402.38 442.501 400.88 442.501 399.08V388.1H445.057V398.792C445.057 400.808 445.549 402.332 446.533 403.364C447.541 404.372 448.945 404.876 450.745 404.876C452.065 404.876 453.205 404.612 454.165 404.084C455.149 403.532 455.893 402.74 456.397 401.708C456.925 400.676 457.189 399.44 457.189 398V388.1H459.745V407H457.297V401.816L457.693 402.752C457.093 404.144 456.157 405.236 454.885 406.028C453.637 406.796 452.173 407.18 450.493 407.18ZM471.945 407.18C470.385 407.18 468.909 406.964 467.517 406.532C466.125 406.076 465.033 405.512 464.241 404.84L465.393 402.824C466.161 403.4 467.145 403.904 468.345 404.336C469.545 404.744 470.805 404.948 472.125 404.948C473.925 404.948 475.221 404.672 476.013 404.12C476.805 403.544 477.201 402.788 477.201 401.852C477.201 401.156 476.973 400.616 476.517 400.232C476.085 399.824 475.509 399.524 474.789 399.332C474.069 399.116 473.265 398.936 472.377 398.792C471.489 398.648 470.601 398.48 469.713 398.288C468.849 398.096 468.057 397.82 467.337 397.46C466.617 397.076 466.029 396.56 465.573 395.912C465.141 395.264 464.925 394.4 464.925 393.32C464.925 392.288 465.213 391.364 465.789 390.548C466.365 389.732 467.205 389.096 468.309 388.64C469.437 388.16 470.805 387.92 472.413 387.92C473.637 387.92 474.861 388.088 476.085 388.424C477.309 388.736 478.317 389.156 479.109 389.684L477.993 391.736C477.153 391.16 476.253 390.752 475.293 390.512C474.333 390.248 473.373 390.116 472.413 390.116C470.709 390.116 469.449 390.416 468.633 391.016C467.841 391.592 467.445 392.336 467.445 393.248C467.445 393.968 467.661 394.532 468.093 394.94C468.549 395.348 469.137 395.672 469.857 395.912C470.601 396.128 471.405 396.308 472.269 396.452C473.157 396.596 474.033 396.776 474.897 396.992C475.785 397.184 476.589 397.46 477.309 397.82C478.053 398.156 478.641 398.648 479.073 399.296C479.529 399.92 479.757 400.748 479.757 401.78C479.757 402.884 479.445 403.844 478.821 404.66C478.221 405.452 477.333 406.076 476.157 406.532C475.005 406.964 473.601 407.18 471.945 407.18ZM498.945 407.18C497.385 407.18 495.909 406.964 494.517 406.532C493.125 406.076 492.033 405.512 491.241 404.84L492.393 402.824C493.161 403.4 494.145 403.904 495.345 404.336C496.545 404.744 497.805 404.948 499.125 404.948C500.925 404.948 502.221 404.672 503.013 404.12C503.805 403.544 504.201 402.788 504.201 401.852C504.201 401.156 503.973 400.616 503.517 400.232C503.085 399.824 502.509 399.524 501.789 399.332C501.069 399.116 500.265 398.936 499.377 398.792C498.489 398.648 497.601 398.48 496.713 398.288C495.849 398.096 495.057 397.82 494.337 397.46C493.617 397.076 493.029 396.56 492.573 395.912C492.141 395.264 491.925 394.4 491.925 393.32C491.925 392.288 492.213 391.364 492.789 390.548C493.365 389.732 494.205 389.096 495.309 388.64C496.437 388.16 497.805 387.92 499.413 387.92C500.637 387.92 501.861 388.088 503.085 388.424C504.309 388.736 505.317 389.156 506.109 389.684L504.993 391.736C504.153 391.16 503.253 390.752 502.293 390.512C501.333 390.248 500.373 390.116 499.413 390.116C497.709 390.116 496.449 390.416 495.633 391.016C494.841 391.592 494.445 392.336 494.445 393.248C494.445 393.968 494.661 394.532 495.093 394.94C495.549 395.348 496.137 395.672 496.857 395.912C497.601 396.128 498.405 396.308 499.269 396.452C500.157 396.596 501.033 396.776 501.897 396.992C502.785 397.184 503.589 397.46 504.309 397.82C505.053 398.156 505.641 398.648 506.073 399.296C506.529 399.92 506.757 400.748 506.757 401.78C506.757 402.884 506.445 403.844 505.821 404.66C505.221 405.452 504.333 406.076 503.157 406.532C502.005 406.964 500.601 407.18 498.945 407.18ZM519.259 407.18C517.651 407.18 516.247 406.88 515.047 406.28C513.847 405.68 512.911 404.78 512.239 403.58C511.591 402.38 511.267 400.88 511.267 399.08V388.1H513.823V398.792C513.823 400.808 514.315 402.332 515.299 403.364C516.307 404.372 517.711 404.876 519.511 404.876C520.831 404.876 521.971 404.612 522.931 404.084C523.915 403.532 524.659 402.74 525.163 401.708C525.691 400.676 525.955 399.44 525.955 398V388.1H528.511V407H526.063V401.816L526.459 402.752C525.859 404.144 524.923 405.236 523.651 406.028C522.403 406.796 520.939 407.18 519.259 407.18ZM513.967 385.148L518.611 380.684H521.203L525.847 385.148H523.471L518.899 381.332H520.915L516.343 385.148H513.967ZM535.634 407V388.1H538.082V393.248L537.83 392.348C538.358 390.908 539.246 389.816 540.494 389.072C541.742 388.304 543.29 387.92 545.138 387.92V390.404C545.042 390.404 544.946 390.404 544.85 390.404C544.754 390.38 544.658 390.368 544.562 390.368C542.57 390.368 541.01 390.98 539.882 392.204C538.754 393.404 538.19 395.12 538.19 397.352V407H535.634ZM567.029 407.18C565.229 407.18 563.609 406.772 562.169 405.956C560.753 405.14 559.637 404.012 558.821 402.572C558.005 401.108 557.597 399.428 557.597 397.532C557.597 395.612 558.005 393.932 558.821 392.492C559.637 391.052 560.753 389.936 562.169 389.144C563.609 388.328 565.229 387.92 567.029 387.92C568.685 387.92 570.161 388.292 571.457 389.036C572.777 389.78 573.821 390.872 574.589 392.312C575.381 393.728 575.777 395.468 575.777 397.532C575.777 399.572 575.393 401.312 574.625 402.752C573.857 404.192 572.813 405.296 571.493 406.064C570.197 406.808 568.709 407.18 567.029 407.18ZM567.209 404.912C568.553 404.912 569.753 404.612 570.809 404.012C571.889 403.388 572.729 402.524 573.329 401.42C573.953 400.292 574.265 398.996 574.265 397.532C574.265 396.044 573.953 394.748 573.329 393.644C572.729 392.54 571.889 391.688 570.809 391.088C569.753 390.464 568.553 390.152 567.209 390.152C565.889 390.152 564.701 390.464 563.645 391.088C562.589 391.688 561.749 392.54 561.125 393.644C560.501 394.748 560.189 396.044 560.189 397.532C560.189 398.996 560.501 400.292 561.125 401.42C561.749 402.524 562.589 403.388 563.645 404.012C564.701 404.612 565.889 404.912 567.209 404.912ZM574.337 407V401.312L574.589 397.496L574.229 393.68V380.288H576.785V407H574.337ZM591.932 407.18C589.964 407.18 588.236 406.772 586.748 405.956C585.26 405.116 584.096 403.976 583.256 402.536C582.416 401.072 581.996 399.404 581.996 397.532C581.996 395.66 582.392 394.004 583.184 392.564C584 391.124 585.104 389.996 586.496 389.18C587.912 388.34 589.496 387.92 591.248 387.92C593.024 387.92 594.596 388.328 595.964 389.144C597.356 389.936 598.448 391.064 599.24 392.528C600.032 393.968 600.428 395.636 600.428 397.532C600.428 397.652 600.416 397.784 600.392 397.928C600.392 398.048 600.392 398.18 600.392 398.324H583.94V396.416H599.024L598.016 397.172C598.016 395.804 597.716 394.592 597.116 393.536C596.54 392.456 595.748 391.616 594.74 391.016C593.732 390.416 592.568 390.116 591.248 390.116C589.952 390.116 588.788 390.416 587.756 391.016C586.724 391.616 585.92 392.456 585.344 393.536C584.768 394.616 584.48 395.852 584.48 397.244V397.64C584.48 399.08 584.792 400.352 585.416 401.456C586.064 402.536 586.952 403.388 588.08 404.012C589.232 404.612 590.54 404.912 592.004 404.912C593.156 404.912 594.224 404.708 595.208 404.3C596.216 403.892 597.08 403.268 597.8 402.428L599.24 404.084C598.4 405.092 597.344 405.86 596.072 406.388C594.824 406.916 593.444 407.18 591.932 407.18ZM619.912 407L611.524 388.1H614.188L621.892 405.632H620.632L628.444 388.1H630.964L622.54 407H619.912ZM641.741 407.18C639.917 407.18 638.273 406.772 636.809 405.956C635.369 405.116 634.229 403.976 633.389 402.536C632.549 401.072 632.129 399.404 632.129 397.532C632.129 395.636 632.549 393.968 633.389 392.528C634.229 391.088 635.369 389.96 636.809 389.144C638.249 388.328 639.893 387.92 641.741 387.92C643.613 387.92 645.269 388.328 646.709 389.144C648.173 389.96 649.313 391.088 650.129 392.528C650.969 393.968 651.389 395.636 651.389 397.532C651.389 399.404 650.969 401.072 650.129 402.536C649.313 403.976 648.173 405.116 646.709 405.956C645.245 406.772 643.589 407.18 641.741 407.18ZM641.741 404.912C643.109 404.912 644.321 404.612 645.377 404.012C646.433 403.388 647.261 402.524 647.861 401.42C648.485 400.292 648.797 398.996 648.797 397.532C648.797 396.044 648.485 394.748 647.861 393.644C647.261 392.54 646.433 391.688 645.377 391.088C644.321 390.464 643.121 390.152 641.777 390.152C640.433 390.152 639.233 390.464 638.177 391.088C637.121 391.688 636.281 392.54 635.657 393.644C635.033 394.748 634.721 396.044 634.721 397.532C634.721 398.996 635.033 400.292 635.657 401.42C636.281 402.524 637.121 403.388 638.177 404.012C639.233 404.612 640.421 404.912 641.741 404.912ZM664.419 407.18C662.811 407.18 661.407 406.88 660.207 406.28C659.007 405.68 658.071 404.78 657.399 403.58C656.751 402.38 656.427 400.88 656.427 399.08V388.1H658.983V398.792C658.983 400.808 659.475 402.332 660.459 403.364C661.467 404.372 662.871 404.876 664.671 404.876C665.991 404.876 667.131 404.612 668.091 404.084C669.075 403.532 669.819 402.74 670.323 401.708C670.851 400.676 671.115 399.44 671.115 398V388.1H673.671V407H671.223V401.816L671.619 402.752C671.019 404.144 670.083 405.236 668.811 406.028C667.563 406.796 666.099 407.18 664.419 407.18ZM680.794 407V380.288H683.35V407H680.794ZM698.166 407.18C696.342 407.18 694.698 406.772 693.234 405.956C691.794 405.116 690.654 403.976 689.814 402.536C688.974 401.072 688.554 399.404 688.554 397.532C688.554 395.636 688.974 393.968 689.814 392.528C690.654 391.088 691.794 389.96 693.234 389.144C694.674 388.328 696.318 387.92 698.166 387.92C700.038 387.92 701.694 388.328 703.134 389.144C704.598 389.96 705.738 391.088 706.554 392.528C707.394 393.968 707.814 395.636 707.814 397.532C707.814 399.404 707.394 401.072 706.554 402.536C705.738 403.976 704.598 405.116 703.134 405.956C701.67 406.772 700.014 407.18 698.166 407.18ZM698.166 404.912C699.534 404.912 700.746 404.612 701.802 404.012C702.858 403.388 703.686 402.524 704.286 401.42C704.91 400.292 705.222 398.996 705.222 397.532C705.222 396.044 704.91 394.748 704.286 393.644C703.686 392.54 702.858 391.688 701.802 391.088C700.746 390.464 699.546 390.152 698.202 390.152C696.858 390.152 695.658 390.464 694.602 391.088C693.546 391.688 692.706 392.54 692.082 393.644C691.458 394.748 691.146 396.044 691.146 397.532C691.146 398.996 691.458 400.292 692.082 401.42C692.706 402.524 693.546 403.388 694.602 404.012C695.658 404.612 696.846 404.912 698.166 404.912ZM713.033 407V388.1H715.589V407H713.033ZM714.329 383.924C713.801 383.924 713.357 383.744 712.997 383.384C712.637 383.024 712.457 382.592 712.457 382.088C712.457 381.584 712.637 381.164 712.997 380.828C713.357 380.468 713.801 380.288 714.329 380.288C714.857 380.288 715.301 380.456 715.661 380.792C716.021 381.128 716.201 381.548 716.201 382.052C716.201 382.58 716.021 383.024 715.661 383.384C715.325 383.744 714.881 383.924 714.329 383.924ZM722.701 407V388.1H725.149V393.248L724.897 392.348C725.425 390.908 726.313 389.816 727.561 389.072C728.809 388.304 730.357 387.92 732.205 387.92V390.404C732.109 390.404 732.013 390.404 731.917 390.404C731.821 390.38 731.725 390.368 731.629 390.368C729.637 390.368 728.077 390.98 726.949 392.204C725.821 393.404 725.257 395.12 725.257 397.352V407H722.701ZM751.648 407.18C750.088 407.18 748.612 406.964 747.22 406.532C745.828 406.076 744.736 405.512 743.944 404.84L745.096 402.824C745.864 403.4 746.848 403.904 748.048 404.336C749.248 404.744 750.508 404.948 751.828 404.948C753.628 404.948 754.924 404.672 755.716 404.12C756.508 403.544 756.904 402.788 756.904 401.852C756.904 401.156 756.676 400.616 756.22 400.232C755.788 399.824 755.212 399.524 754.492 399.332C753.772 399.116 752.968 398.936 752.08 398.792C751.192 398.648 750.304 398.48 749.416 398.288C748.552 398.096 747.76 397.82 747.04 397.46C746.32 397.076 745.732 396.56 745.276 395.912C744.844 395.264 744.628 394.4 744.628 393.32C744.628 392.288 744.916 391.364 745.492 390.548C746.068 389.732 746.908 389.096 748.012 388.64C749.14 388.16 750.508 387.92 752.116 387.92C753.34 387.92 754.564 388.088 755.788 388.424C757.012 388.736 758.02 389.156 758.812 389.684L757.696 391.736C756.856 391.16 755.956 390.752 754.996 390.512C754.036 390.248 753.076 390.116 752.116 390.116C750.412 390.116 749.152 390.416 748.336 391.016C747.544 391.592 747.148 392.336 747.148 393.248C747.148 393.968 747.364 394.532 747.796 394.94C748.252 395.348 748.84 395.672 749.56 395.912C750.304 396.128 751.108 396.308 751.972 396.452C752.86 396.596 753.736 396.776 754.6 396.992C755.488 397.184 756.292 397.46 757.012 397.82C757.756 398.156 758.344 398.648 758.776 399.296C759.232 399.92 759.46 400.748 759.46 401.78C759.46 402.884 759.148 403.844 758.524 404.66C757.924 405.452 757.036 406.076 755.86 406.532C754.708 406.964 753.304 407.18 751.648 407.18ZM771.962 407.18C770.354 407.18 768.95 406.88 767.75 406.28C766.55 405.68 765.614 404.78 764.942 403.58C764.294 402.38 763.97 400.88 763.97 399.08V388.1H766.526V398.792C766.526 400.808 767.018 402.332 768.002 403.364C769.01 404.372 770.414 404.876 772.214 404.876C773.534 404.876 774.674 404.612 775.634 404.084C776.618 403.532 777.362 402.74 777.866 401.708C778.394 400.676 778.658 399.44 778.658 398V388.1H781.214V407H778.766V401.816L779.162 402.752C778.562 404.144 777.626 405.236 776.354 406.028C775.106 406.796 773.642 407.18 771.962 407.18ZM798.093 407.18C796.461 407.18 794.985 406.808 793.665 406.064C792.345 405.296 791.289 404.204 790.497 402.788C789.729 401.348 789.345 399.596 789.345 397.532C789.345 395.468 789.729 393.728 790.497 392.312C791.265 390.872 792.309 389.78 793.629 389.036C794.949 388.292 796.437 387.92 798.093 387.92C799.893 387.92 801.501 388.328 802.917 389.144C804.357 389.936 805.485 391.064 806.301 392.528C807.117 393.968 807.525 395.636 807.525 397.532C807.525 399.452 807.117 401.132 806.301 402.572C805.485 404.012 804.357 405.14 802.917 405.956C801.501 406.772 799.893 407.18 798.093 407.18ZM788.337 413.984V388.1H790.785V393.788L790.533 397.568L790.893 401.384V413.984H788.337ZM797.913 404.912C799.257 404.912 800.457 404.612 801.513 404.012C802.569 403.388 803.409 402.524 804.033 401.42C804.657 400.292 804.969 398.996 804.969 397.532C804.969 396.068 804.657 394.784 804.033 393.68C803.409 392.576 802.569 391.712 801.513 391.088C800.457 390.464 799.257 390.152 797.913 390.152C796.569 390.152 795.357 390.464 794.277 391.088C793.221 391.712 792.381 392.576 791.757 393.68C791.157 394.784 790.857 396.068 790.857 397.532C790.857 398.996 791.157 400.292 791.757 401.42C792.381 402.524 793.221 403.388 794.277 404.012C795.357 404.612 796.569 404.912 797.913 404.912ZM822.492 407.18C820.86 407.18 819.384 406.808 818.064 406.064C816.744 405.296 815.688 404.204 814.896 402.788C814.128 401.348 813.744 399.596 813.744 397.532C813.744 395.468 814.128 393.728 814.896 392.312C815.664 390.872 816.708 389.78 818.028 389.036C819.348 388.292 820.836 387.92 822.492 387.92C824.292 387.92 825.9 388.328 827.316 389.144C828.756 389.936 829.884 391.064 830.7 392.528C831.516 393.968 831.924 395.636 831.924 397.532C831.924 399.452 831.516 401.132 830.7 402.572C829.884 404.012 828.756 405.14 827.316 405.956C825.9 406.772 824.292 407.18 822.492 407.18ZM812.736 413.984V388.1H815.184V393.788L814.932 397.568L815.292 401.384V413.984H812.736ZM822.312 404.912C823.656 404.912 824.856 404.612 825.912 404.012C826.968 403.388 827.808 402.524 828.432 401.42C829.056 400.292 829.368 398.996 829.368 397.532C829.368 396.068 829.056 394.784 828.432 393.68C827.808 392.576 826.968 391.712 825.912 391.088C824.856 390.464 823.656 390.152 822.312 390.152C820.968 390.152 819.756 390.464 818.676 391.088C817.62 391.712 816.78 392.576 816.156 393.68C815.556 394.784 815.256 396.068 815.256 397.532C815.256 398.996 815.556 400.292 816.156 401.42C816.78 402.524 817.62 403.388 818.676 404.012C819.756 404.612 820.968 404.912 822.312 404.912ZM837.134 407V388.1H839.582V393.248L839.33 392.348C839.858 390.908 840.746 389.816 841.994 389.072C843.242 388.304 844.79 387.92 846.638 387.92V390.404C846.542 390.404 846.446 390.404 846.35 390.404C846.254 390.38 846.158 390.368 846.062 390.368C844.07 390.368 842.51 390.98 841.382 392.204C840.254 393.404 839.69 395.12 839.69 397.352V407H837.134ZM851.302 407V388.1H853.858V407H851.302ZM852.598 383.924C852.07 383.924 851.626 383.744 851.266 383.384C850.906 383.024 850.726 382.592 850.726 382.088C850.726 381.584 850.906 381.164 851.266 380.828C851.626 380.468 852.07 380.288 852.598 380.288C853.126 380.288 853.57 380.456 853.93 380.792C854.29 381.128 854.47 381.548 854.47 382.052C854.47 382.58 854.29 383.024 853.93 383.384C853.594 383.744 853.15 383.924 852.598 383.924ZM884.586 387.92C886.122 387.92 887.454 388.22 888.582 388.82C889.734 389.396 890.622 390.284 891.246 391.484C891.894 392.684 892.218 394.196 892.218 396.02V407H889.662V396.272C889.662 394.28 889.182 392.78 888.222 391.772C887.286 390.74 885.954 390.224 884.226 390.224C882.93 390.224 881.802 390.5 880.842 391.052C879.906 391.58 879.174 392.36 878.646 393.392C878.142 394.4 877.89 395.624 877.89 397.064V407H875.334V396.272C875.334 394.28 874.854 392.78 873.894 391.772C872.934 390.74 871.59 390.224 869.862 390.224C868.59 390.224 867.474 390.5 866.514 391.052C865.554 391.58 864.81 392.36 864.282 393.392C863.778 394.4 863.526 395.624 863.526 397.064V407H860.97V388.1H863.418V393.212L863.022 392.312C863.598 390.944 864.522 389.876 865.794 389.108C867.09 388.316 868.614 387.92 870.366 387.92C872.214 387.92 873.786 388.388 875.082 389.324C876.378 390.236 877.218 391.616 877.602 393.464L876.594 393.068C877.146 391.532 878.118 390.296 879.51 389.36C880.926 388.4 882.618 387.92 884.586 387.92ZM907.178 407.18C905.21 407.18 903.482 406.772 901.994 405.956C900.506 405.116 899.342 403.976 898.502 402.536C897.662 401.072 897.242 399.404 897.242 397.532C897.242 395.66 897.638 394.004 898.43 392.564C899.246 391.124 900.35 389.996 901.742 389.18C903.158 388.34 904.742 387.92 906.494 387.92C908.27 387.92 909.842 388.328 911.21 389.144C912.602 389.936 913.694 391.064 914.486 392.528C915.278 393.968 915.674 395.636 915.674 397.532C915.674 397.652 915.662 397.784 915.638 397.928C915.638 398.048 915.638 398.18 915.638 398.324H899.186V396.416H914.27L913.262 397.172C913.262 395.804 912.962 394.592 912.362 393.536C911.786 392.456 910.994 391.616 909.986 391.016C908.978 390.416 907.814 390.116 906.494 390.116C905.198 390.116 904.034 390.416 903.002 391.016C901.97 391.616 901.166 392.456 900.59 393.536C900.014 394.616 899.726 395.852 899.726 397.244V397.64C899.726 399.08 900.038 400.352 900.662 401.456C901.31 402.536 902.198 403.388 903.326 404.012C904.478 404.612 905.786 404.912 907.25 404.912C908.402 404.912 909.47 404.708 910.454 404.3C911.462 403.892 912.326 403.268 913.046 402.428L914.486 404.084C913.646 405.092 912.59 405.86 911.318 406.388C910.07 406.916 908.69 407.18 907.178 407.18ZM920.877 407V388.1H923.325V393.248L923.073 392.348C923.601 390.908 924.489 389.816 925.737 389.072C926.985 388.304 928.533 387.92 930.381 387.92V390.404C930.285 390.404 930.189 390.404 930.093 390.404C929.997 390.38 929.901 390.368 929.805 390.368C927.812 390.368 926.253 390.98 925.125 392.204C923.997 393.404 923.433 395.12 923.433 397.352V407H920.877ZM944.748 407V380.288H947.304V407H944.748ZM962.444 407.18C960.476 407.18 958.748 406.772 957.26 405.956C955.772 405.116 954.608 403.976 953.768 402.536C952.928 401.072 952.508 399.404 952.508 397.532C952.508 395.66 952.904 394.004 953.696 392.564C954.512 391.124 955.616 389.996 957.008 389.18C958.424 388.34 960.008 387.92 961.76 387.92C963.536 387.92 965.108 388.328 966.476 389.144C967.868 389.936 968.96 391.064 969.752 392.528C970.544 393.968 970.94 395.636 970.94 397.532C970.94 397.652 970.928 397.784 970.904 397.928C970.904 398.048 970.904 398.18 970.904 398.324H954.452V396.416H969.536L968.528 397.172C968.528 395.804 968.228 394.592 967.628 393.536C967.052 392.456 966.26 391.616 965.252 391.016C964.244 390.416 963.08 390.116 961.76 390.116C960.464 390.116 959.3 390.416 958.268 391.016C957.236 391.616 956.432 392.456 955.856 393.536C955.28 394.616 954.992 395.852 954.992 397.244V397.64C954.992 399.08 955.304 400.352 955.928 401.456C956.576 402.536 957.464 403.388 958.592 404.012C959.744 404.612 961.052 404.912 962.516 404.912C963.668 404.912 964.736 404.708 965.72 404.3C966.728 403.892 967.592 403.268 968.312 402.428L969.752 404.084C968.912 405.092 967.856 405.86 966.584 406.388C965.336 406.916 963.956 407.18 962.444 407.18ZM423.644 451.18C422.012 451.18 420.536 450.808 419.216 450.064C417.896 449.296 416.84 448.204 416.048 446.788C415.28 445.348 414.896 443.596 414.896 441.532C414.896 439.468 415.28 437.728 416.048 436.312C416.816 434.872 417.86 433.78 419.18 433.036C420.5 432.292 421.988 431.92 423.644 431.92C425.444 431.92 427.052 432.328 428.468 433.144C429.908 433.936 431.036 435.064 431.852 436.528C432.668 437.968 433.076 439.636 433.076 441.532C433.076 443.452 432.668 445.132 431.852 446.572C431.036 448.012 429.908 449.14 428.468 449.956C427.052 450.772 425.444 451.18 423.644 451.18ZM413.888 457.984V432.1H416.336V437.788L416.084 441.568L416.444 445.384V457.984H413.888ZM423.464 448.912C424.808 448.912 426.008 448.612 427.064 448.012C428.12 447.388 428.96 446.524 429.584 445.42C430.208 444.292 430.52 442.996 430.52 441.532C430.52 440.068 430.208 438.784 429.584 437.68C428.96 436.576 428.12 435.712 427.064 435.088C426.008 434.464 424.808 434.152 423.464 434.152C422.12 434.152 420.908 434.464 419.828 435.088C418.772 435.712 417.932 436.576 417.308 437.68C416.708 438.784 416.408 440.068 416.408 441.532C416.408 442.996 416.708 444.292 417.308 445.42C417.932 446.524 418.772 447.388 419.828 448.012C420.908 448.612 422.12 448.912 423.464 448.912ZM438.287 451V432.1H440.735V437.248L440.483 436.348C441.011 434.908 441.899 433.816 443.147 433.072C444.395 432.304 445.943 431.92 447.791 431.92V434.404C447.695 434.404 447.599 434.404 447.503 434.404C447.407 434.38 447.311 434.368 447.215 434.368C445.223 434.368 443.663 434.98 442.535 436.204C441.407 437.404 440.843 439.12 440.843 441.352V451H438.287ZM459.983 451.18C458.159 451.18 456.515 450.772 455.051 449.956C453.611 449.116 452.471 447.976 451.631 446.536C450.791 445.072 450.371 443.404 450.371 441.532C450.371 439.636 450.791 437.968 451.631 436.528C452.471 435.088 453.611 433.96 455.051 433.144C456.491 432.328 458.135 431.92 459.983 431.92C461.855 431.92 463.511 432.328 464.951 433.144C466.415 433.96 467.555 435.088 468.371 436.528C469.211 437.968 469.631 439.636 469.631 441.532C469.631 443.404 469.211 445.072 468.371 446.536C467.555 447.976 466.415 449.116 464.951 449.956C463.487 450.772 461.831 451.18 459.983 451.18ZM459.983 448.912C461.351 448.912 462.563 448.612 463.619 448.012C464.675 447.388 465.503 446.524 466.103 445.42C466.727 444.292 467.039 442.996 467.039 441.532C467.039 440.044 466.727 438.748 466.103 437.644C465.503 436.54 464.675 435.688 463.619 435.088C462.563 434.464 461.363 434.152 460.019 434.152C458.675 434.152 457.475 434.464 456.419 435.088C455.363 435.688 454.523 436.54 453.899 437.644C453.275 438.748 452.963 440.044 452.963 441.532C452.963 442.996 453.275 444.292 453.899 445.42C454.523 446.524 455.363 447.388 456.419 448.012C457.475 448.612 458.663 448.912 459.983 448.912ZM482.373 451.18C480.573 451.18 478.953 450.772 477.513 449.956C476.097 449.14 474.981 448.012 474.165 446.572C473.349 445.108 472.941 443.428 472.941 441.532C472.941 439.612 473.349 437.932 474.165 436.492C474.981 435.052 476.097 433.936 477.513 433.144C478.953 432.328 480.573 431.92 482.373 431.92C484.029 431.92 485.505 432.292 486.801 433.036C488.121 433.78 489.165 434.872 489.933 436.312C490.725 437.728 491.121 439.468 491.121 441.532C491.121 443.572 490.737 445.312 489.969 446.752C489.201 448.192 488.157 449.296 486.837 450.064C485.541 450.808 484.053 451.18 482.373 451.18ZM482.553 448.912C483.897 448.912 485.097 448.612 486.153 448.012C487.233 447.388 488.073 446.524 488.673 445.42C489.297 444.292 489.609 442.996 489.609 441.532C489.609 440.044 489.297 438.748 488.673 437.644C488.073 436.54 487.233 435.688 486.153 435.088C485.097 434.464 483.897 434.152 482.553 434.152C481.233 434.152 480.045 434.464 478.989 435.088C477.933 435.688 477.093 436.54 476.469 437.644C475.845 438.748 475.533 440.044 475.533 441.532C475.533 442.996 475.845 444.292 476.469 445.42C477.093 446.524 477.933 447.388 478.989 448.012C480.045 448.612 481.233 448.912 482.553 448.912ZM489.681 451V445.312L489.933 441.496L489.573 437.68V424.288H492.129V451H489.681ZM507.06 451.18C505.452 451.18 504.048 450.88 502.848 450.28C501.648 449.68 500.712 448.78 500.04 447.58C499.392 446.38 499.068 444.88 499.068 443.08V432.1H501.624V442.792C501.624 444.808 502.116 446.332 503.1 447.364C504.108 448.372 505.512 448.876 507.312 448.876C508.632 448.876 509.772 448.612 510.732 448.084C511.716 447.532 512.46 446.74 512.964 445.708C513.492 444.676 513.756 443.44 513.756 442V432.1H516.312V451H513.864V445.816L514.26 446.752C513.66 448.144 512.724 449.236 511.452 450.028C510.204 450.796 508.74 451.18 507.06 451.18ZM523.435 451V432.1H525.991V451H523.435ZM524.731 427.924C524.203 427.924 523.759 427.744 523.399 427.384C523.039 427.024 522.859 426.592 522.859 426.088C522.859 425.584 523.039 425.164 523.399 424.828C523.759 424.468 524.203 424.288 524.731 424.288C525.259 424.288 525.703 424.456 526.063 424.792C526.423 425.128 526.603 425.548 526.603 426.052C526.603 426.58 526.423 427.024 526.063 427.384C525.727 427.744 525.283 427.924 524.731 427.924ZM539.079 451.18C537.303 451.18 535.935 450.7 534.975 449.74C534.015 448.78 533.535 447.424 533.535 445.672V427.924H536.091V445.528C536.091 446.632 536.367 447.484 536.919 448.084C537.495 448.684 538.311 448.984 539.367 448.984C540.495 448.984 541.431 448.66 542.175 448.012L543.075 449.848C542.571 450.304 541.959 450.64 541.239 450.856C540.543 451.072 539.823 451.18 539.079 451.18ZM530.151 434.224V432.1H541.851V434.224H530.151ZM557.402 435.844C556.874 435.844 556.418 435.652 556.034 435.268C555.674 434.884 555.494 434.416 555.494 433.864C555.494 433.288 555.674 432.82 556.034 432.46C556.418 432.1 556.874 431.92 557.402 431.92C557.93 431.92 558.374 432.1 558.734 432.46C559.118 432.82 559.31 433.288 559.31 433.864C559.31 434.416 559.118 434.884 558.734 435.268C558.374 435.652 557.93 435.844 557.402 435.844ZM557.402 451.18C556.874 451.18 556.418 450.988 556.034 450.604C555.674 450.22 555.494 449.752 555.494 449.2C555.494 448.624 555.674 448.156 556.034 447.796C556.418 447.436 556.874 447.256 557.402 447.256C557.93 447.256 558.374 447.436 558.734 447.796C559.118 448.156 559.31 448.624 559.31 449.2C559.31 449.752 559.118 450.22 558.734 450.604C558.374 450.988 557.93 451.18 557.402 451.18ZM583.957 451.18C582.325 451.18 580.849 450.808 579.529 450.064C578.209 449.296 577.153 448.204 576.361 446.788C575.593 445.348 575.209 443.596 575.209 441.532C575.209 439.468 575.593 437.728 576.361 436.312C577.129 434.872 578.173 433.78 579.493 433.036C580.813 432.292 582.301 431.92 583.957 431.92C585.757 431.92 587.365 432.328 588.781 433.144C590.221 433.936 591.349 435.064 592.165 436.528C592.981 437.968 593.389 439.636 593.389 441.532C593.389 443.452 592.981 445.132 592.165 446.572C591.349 448.012 590.221 449.14 588.781 449.956C587.365 450.772 585.757 451.18 583.957 451.18ZM574.201 457.984V432.1H576.649V437.788L576.397 441.568L576.757 445.384V457.984H574.201ZM583.777 448.912C585.121 448.912 586.321 448.612 587.377 448.012C588.433 447.388 589.273 446.524 589.897 445.42C590.521 444.292 590.833 442.996 590.833 441.532C590.833 440.068 590.521 438.784 589.897 437.68C589.273 436.576 588.433 435.712 587.377 435.088C586.321 434.464 585.121 434.152 583.777 434.152C582.433 434.152 581.221 434.464 580.141 435.088C579.085 435.712 578.245 436.576 577.621 437.68C577.021 438.784 576.721 440.068 576.721 441.532C576.721 442.996 577.021 444.292 577.621 445.42C578.245 446.524 579.085 447.388 580.141 448.012C581.221 448.612 582.433 448.912 583.777 448.912ZM598.599 451V432.1H601.047V437.248L600.795 436.348C601.323 434.908 602.211 433.816 603.459 433.072C604.707 432.304 606.255 431.92 608.103 431.92V434.404C608.007 434.404 607.911 434.404 607.815 434.404C607.719 434.38 607.623 434.368 607.527 434.368C605.535 434.368 603.975 434.98 602.847 436.204C601.719 437.404 601.155 439.12 601.155 441.352V451H598.599ZM620.295 451.18C618.471 451.18 616.827 450.772 615.363 449.956C613.923 449.116 612.783 447.976 611.943 446.536C611.103 445.072 610.683 443.404 610.683 441.532C610.683 439.636 611.103 437.968 611.943 436.528C612.783 435.088 613.923 433.96 615.363 433.144C616.803 432.328 618.447 431.92 620.295 431.92C622.167 431.92 623.823 432.328 625.263 433.144C626.727 433.96 627.867 435.088 628.683 436.528C629.523 437.968 629.943 439.636 629.943 441.532C629.943 443.404 629.523 445.072 628.683 446.536C627.867 447.976 626.727 449.116 625.263 449.956C623.799 450.772 622.143 451.18 620.295 451.18ZM620.295 448.912C621.663 448.912 622.875 448.612 623.931 448.012C624.987 447.388 625.815 446.524 626.415 445.42C627.039 444.292 627.351 442.996 627.351 441.532C627.351 440.044 627.039 438.748 626.415 437.644C625.815 436.54 624.987 435.688 623.931 435.088C622.875 434.464 621.675 434.152 620.331 434.152C618.987 434.152 617.787 434.464 616.731 435.088C615.675 435.688 614.835 436.54 614.211 437.644C613.587 438.748 613.275 440.044 613.275 441.532C613.275 442.996 613.587 444.292 614.211 445.42C614.835 446.524 615.675 447.388 616.731 448.012C617.787 448.612 618.975 448.912 620.295 448.912ZM642.686 451.18C640.886 451.18 639.266 450.772 637.826 449.956C636.41 449.14 635.294 448.012 634.478 446.572C633.662 445.108 633.254 443.428 633.254 441.532C633.254 439.612 633.662 437.932 634.478 436.492C635.294 435.052 636.41 433.936 637.826 433.144C639.266 432.328 640.886 431.92 642.686 431.92C644.342 431.92 645.818 432.292 647.114 433.036C648.434 433.78 649.478 434.872 650.246 436.312C651.038 437.728 651.434 439.468 651.434 441.532C651.434 443.572 651.05 445.312 650.282 446.752C649.514 448.192 648.47 449.296 647.15 450.064C645.854 450.808 644.366 451.18 642.686 451.18ZM642.866 448.912C644.21 448.912 645.41 448.612 646.466 448.012C647.546 447.388 648.386 446.524 648.986 445.42C649.61 444.292 649.922 442.996 649.922 441.532C649.922 440.044 649.61 438.748 648.986 437.644C648.386 436.54 647.546 435.688 646.466 435.088C645.41 434.464 644.21 434.152 642.866 434.152C641.546 434.152 640.358 434.464 639.302 435.088C638.246 435.688 637.406 436.54 636.782 437.644C636.158 438.748 635.846 440.044 635.846 441.532C635.846 442.996 636.158 444.292 636.782 445.42C637.406 446.524 638.246 447.388 639.302 448.012C640.358 448.612 641.546 448.912 642.866 448.912ZM649.994 451V445.312L650.246 441.496L649.886 437.68V424.288H652.442V451H649.994ZM667.372 451.18C665.764 451.18 664.36 450.88 663.16 450.28C661.96 449.68 661.024 448.78 660.352 447.58C659.704 446.38 659.38 444.88 659.38 443.08V432.1H661.936V442.792C661.936 444.808 662.428 446.332 663.412 447.364C664.42 448.372 665.824 448.876 667.624 448.876C668.944 448.876 670.084 448.612 671.044 448.084C672.028 447.532 672.772 446.74 673.276 445.708C673.804 444.676 674.068 443.44 674.068 442V432.1H676.624V451H674.176V445.816L674.572 446.752C673.972 448.144 673.036 449.236 671.764 450.028C670.516 450.796 669.052 451.18 667.372 451.18ZM683.748 451V432.1H686.304V451H683.748ZM685.044 427.924C684.516 427.924 684.072 427.744 683.712 427.384C683.352 427.024 683.172 426.592 683.172 426.088C683.172 425.584 683.352 425.164 683.712 424.828C684.072 424.468 684.516 424.288 685.044 424.288C685.572 424.288 686.016 424.456 686.376 424.792C686.736 425.128 686.916 425.548 686.916 426.052C686.916 426.58 686.736 427.024 686.376 427.384C686.04 427.744 685.596 427.924 685.044 427.924ZM699.392 451.18C697.616 451.18 696.248 450.7 695.288 449.74C694.328 448.78 693.848 447.424 693.848 445.672V427.924H696.404V445.528C696.404 446.632 696.68 447.484 697.232 448.084C697.808 448.684 698.624 448.984 699.68 448.984C700.808 448.984 701.744 448.66 702.488 448.012L703.388 449.848C702.884 450.304 702.272 450.64 701.552 450.856C700.856 451.072 700.136 451.18 699.392 451.18ZM690.464 434.224V432.1H702.164V434.224H690.464ZM722.898 451V428.104H714.042V425.8H734.418V428.104H725.562V451H722.898ZM744.23 458.164C742.502 458.164 740.846 457.912 739.262 457.408C737.678 456.904 736.394 456.184 735.41 455.248L736.706 453.304C737.594 454.096 738.686 454.72 739.982 455.176C741.302 455.656 742.694 455.896 744.158 455.896C746.558 455.896 748.322 455.332 749.45 454.204C750.578 453.1 751.142 451.372 751.142 449.02V444.304L751.502 441.064L751.25 437.824V432.1H753.698V448.696C753.698 451.96 752.894 454.348 751.286 455.86C749.702 457.396 747.35 458.164 744.23 458.164ZM743.762 450.28C741.962 450.28 740.342 449.896 738.902 449.128C737.462 448.336 736.322 447.244 735.482 445.852C734.666 444.46 734.258 442.864 734.258 441.064C734.258 439.264 734.666 437.68 735.482 436.312C736.322 434.92 737.462 433.84 738.902 433.072C740.342 432.304 741.962 431.92 743.762 431.92C745.442 431.92 746.954 432.268 748.298 432.964C749.642 433.66 750.71 434.692 751.502 436.06C752.294 437.428 752.69 439.096 752.69 441.064C752.69 443.032 752.294 444.7 751.502 446.068C750.71 447.436 749.642 448.48 748.298 449.2C746.954 449.92 745.442 450.28 743.762 450.28ZM744.014 448.012C745.406 448.012 746.642 447.724 747.722 447.148C748.802 446.548 749.654 445.732 750.278 444.7C750.902 443.644 751.214 442.432 751.214 441.064C751.214 439.696 750.902 438.496 750.278 437.464C749.654 436.432 748.802 435.628 747.722 435.052C746.642 434.452 745.406 434.152 744.014 434.152C742.646 434.152 741.41 434.452 740.306 435.052C739.226 435.628 738.374 436.432 737.75 437.464C737.15 438.496 736.85 439.696 736.85 441.064C736.85 442.432 737.15 443.644 737.75 444.7C738.374 445.732 739.226 446.548 740.306 447.148C741.41 447.724 742.646 448.012 744.014 448.012ZM770.566 451.18C768.91 451.18 767.422 450.808 766.102 450.064C764.782 449.296 763.738 448.192 762.97 446.752C762.202 445.312 761.818 443.572 761.818 441.532C761.818 439.468 762.202 437.728 762.97 436.312C763.762 434.872 764.818 433.78 766.138 433.036C767.458 432.292 768.934 431.92 770.566 431.92C772.366 431.92 773.974 432.328 775.39 433.144C776.83 433.936 777.958 435.052 778.774 436.492C779.59 437.932 779.998 439.612 779.998 441.532C779.998 443.428 779.59 445.108 778.774 446.572C777.958 448.012 776.83 449.14 775.39 449.956C773.974 450.772 772.366 451.18 770.566 451.18ZM760.81 451V424.288H763.366V437.68L763.006 441.496L763.258 445.312V451H760.81ZM770.386 448.912C771.73 448.912 772.93 448.612 773.986 448.012C775.042 447.388 775.882 446.524 776.506 445.42C777.13 444.292 777.442 442.996 777.442 441.532C777.442 440.044 777.13 438.748 776.506 437.644C775.882 436.54 775.042 435.688 773.986 435.088C772.93 434.464 771.73 434.152 770.386 434.152C769.042 434.152 767.83 434.464 766.75 435.088C765.694 435.688 764.854 436.54 764.23 437.644C763.63 438.748 763.33 440.044 763.33 441.532C763.33 442.996 763.63 444.292 764.23 445.42C764.854 446.524 765.694 447.388 766.75 448.012C767.83 448.612 769.042 448.912 770.386 448.912ZM794.857 431.92C796.393 431.92 797.737 432.22 798.889 432.82C800.065 433.396 800.977 434.284 801.625 435.484C802.297 436.684 802.633 438.196 802.633 440.02V451H800.077V440.272C800.077 438.28 799.573 436.78 798.565 435.772C797.581 434.74 796.189 434.224 794.389 434.224C793.045 434.224 791.869 434.5 790.861 435.052C789.877 435.58 789.109 436.36 788.557 437.392C788.029 438.4 787.765 439.624 787.765 441.064V451H785.209V424.288H787.765V437.284L787.261 436.312C787.861 434.944 788.821 433.876 790.141 433.108C791.461 432.316 793.033 431.92 794.857 431.92ZM817.349 451.18C815.741 451.18 814.337 450.88 813.137 450.28C811.937 449.68 811.001 448.78 810.329 447.58C809.681 446.38 809.357 444.88 809.357 443.08V432.1H811.913V442.792C811.913 444.808 812.405 446.332 813.389 447.364C814.397 448.372 815.801 448.876 817.601 448.876C818.921 448.876 820.061 448.612 821.021 448.084C822.005 447.532 822.749 446.74 823.253 445.708C823.781 444.676 824.045 443.44 824.045 442V432.1H826.601V451H824.153V445.816L824.549 446.752C823.949 448.144 823.013 449.236 821.741 450.028C820.493 450.796 819.029 451.18 817.349 451.18ZM833.724 451V432.1H836.28V451H833.724ZM835.02 427.924C834.492 427.924 834.048 427.744 833.688 427.384C833.328 427.024 833.148 426.592 833.148 426.088C833.148 425.584 833.328 425.164 833.688 424.828C834.048 424.468 834.492 424.288 835.02 424.288C835.548 424.288 835.992 424.456 836.352 424.792C836.712 425.128 836.892 425.548 836.892 426.052C836.892 426.58 836.712 427.024 836.352 427.384C836.016 427.744 835.572 427.924 835.02 427.924ZM857.71 443.44C857.71 442.432 857.866 441.568 858.178 440.848C858.514 440.128 858.922 439.492 859.402 438.94C859.906 438.388 860.434 437.872 860.986 437.392C861.562 436.912 862.102 436.432 862.606 435.952C863.11 435.448 863.518 434.908 863.83 434.332C864.142 433.732 864.298 433.036 864.298 432.244C864.298 430.948 863.794 429.892 862.786 429.076C861.778 428.26 860.35 427.852 858.502 427.852C856.966 427.852 855.634 428.104 854.506 428.608C853.378 429.088 852.418 429.808 851.626 430.768L849.718 429.328C850.678 428.128 851.914 427.204 853.426 426.556C854.938 425.908 856.69 425.584 858.682 425.584C860.362 425.584 861.814 425.836 863.038 426.34C864.286 426.844 865.246 427.564 865.918 428.5C866.614 429.436 866.962 430.552 866.962 431.848C866.962 432.88 866.794 433.768 866.458 434.512C866.146 435.232 865.738 435.88 865.234 436.456C864.754 437.008 864.226 437.536 863.65 438.04C863.098 438.52 862.57 439.012 862.066 439.516C861.562 440.02 861.154 440.584 860.842 441.208C860.53 441.832 860.374 442.576 860.374 443.44H857.71ZM859.042 451.18C858.538 451.18 858.094 451 857.71 450.64C857.35 450.256 857.17 449.812 857.17 449.308C857.17 448.78 857.35 448.348 857.71 448.012C858.094 447.652 858.538 447.472 859.042 447.472C859.594 447.472 860.05 447.652 860.41 448.012C860.77 448.348 860.95 448.78 860.95 449.308C860.95 449.812 860.77 450.256 860.41 450.64C860.05 451 859.594 451.18 859.042 451.18Z" fill="black"/>
<path d="M369.673 244.32C367.539 244.32 365.499 244 363.553 243.36C361.606 242.693 360.073 241.84 358.953 240.8L360.433 237.68C361.499 238.613 362.859 239.387 364.513 240C366.166 240.613 367.886 240.92 369.673 240.92C371.299 240.92 372.619 240.733 373.633 240.36C374.646 239.987 375.393 239.48 375.873 238.84C376.353 238.173 376.593 237.427 376.593 236.6C376.593 235.64 376.273 234.867 375.633 234.28C375.019 233.693 374.206 233.227 373.193 232.88C372.206 232.507 371.113 232.187 369.913 231.92C368.713 231.653 367.499 231.347 366.273 231C365.073 230.627 363.966 230.16 362.953 229.6C361.966 229.04 361.166 228.293 360.553 227.36C359.939 226.4 359.633 225.173 359.633 223.68C359.633 222.24 360.006 220.92 360.753 219.72C361.526 218.493 362.699 217.52 364.273 216.8C365.873 216.053 367.899 215.68 370.353 215.68C371.979 215.68 373.593 215.893 375.193 216.32C376.793 216.747 378.179 217.36 379.352 218.16L378.033 221.36C376.833 220.56 375.566 219.987 374.233 219.64C372.899 219.267 371.606 219.08 370.353 219.08C368.779 219.08 367.486 219.28 366.473 219.68C365.459 220.08 364.713 220.613 364.233 221.28C363.779 221.947 363.553 222.693 363.553 223.52C363.553 224.507 363.859 225.293 364.473 225.88C365.113 226.467 365.926 226.933 366.913 227.28C367.926 227.627 369.033 227.947 370.233 228.24C371.433 228.507 372.633 228.813 373.833 229.16C375.059 229.507 376.166 229.96 377.153 230.52C378.166 231.08 378.979 231.827 379.593 232.76C380.206 233.693 380.513 234.893 380.513 236.36C380.513 237.773 380.126 239.093 379.352 240.32C378.579 241.52 377.379 242.493 375.753 243.24C374.153 243.96 372.126 244.32 369.673 244.32ZM394.716 244.24C392.903 244.24 391.303 243.907 389.916 243.24C388.556 242.573 387.49 241.56 386.716 240.2C385.97 238.813 385.596 237.08 385.596 235V222.8H389.436V234.56C389.436 236.64 389.93 238.2 390.916 239.24C391.93 240.28 393.343 240.8 395.156 240.8C396.49 240.8 397.65 240.533 398.636 240C399.623 239.44 400.383 238.64 400.916 237.6C401.45 236.533 401.716 235.253 401.716 233.76V222.8H405.556V244H401.916V238.28L402.516 239.8C401.823 241.213 400.783 242.307 399.396 243.08C398.01 243.853 396.45 244.24 394.716 244.24ZM424.107 244.24C422.347 244.24 420.733 243.84 419.267 243.04C417.827 242.213 416.667 241 415.787 239.4C414.933 237.8 414.507 235.8 414.507 233.4C414.507 231 414.92 229 415.747 227.4C416.6 225.8 417.747 224.6 419.187 223.8C420.653 223 422.293 222.6 424.107 222.6C426.187 222.6 428.027 223.053 429.627 223.96C431.227 224.867 432.493 226.133 433.427 227.76C434.36 229.36 434.827 231.24 434.827 233.4C434.827 235.56 434.36 237.453 433.427 239.08C432.493 240.707 431.227 241.973 429.627 242.88C428.027 243.787 426.187 244.24 424.107 244.24ZM412.867 251.76V222.8H416.547V228.52L416.307 233.44L416.707 238.36V251.76H412.867ZM423.787 240.88C425.147 240.88 426.36 240.573 427.427 239.96C428.52 239.347 429.373 238.48 429.987 237.36C430.627 236.213 430.947 234.893 430.947 233.4C430.947 231.88 430.627 230.573 429.987 229.48C429.373 228.36 428.52 227.493 427.427 226.88C426.36 226.267 425.147 225.96 423.787 225.96C422.453 225.96 421.24 226.267 420.147 226.88C419.08 227.493 418.227 228.36 417.587 229.48C416.973 230.573 416.667 231.88 416.667 233.4C416.667 234.893 416.973 236.213 417.587 237.36C418.227 238.48 419.08 239.347 420.147 239.96C421.24 240.573 422.453 240.88 423.787 240.88ZM451.372 244.24C449.612 244.24 447.999 243.84 446.532 243.04C445.092 242.213 443.932 241 443.052 239.4C442.199 237.8 441.772 235.8 441.772 233.4C441.772 231 442.186 229 443.012 227.4C443.866 225.8 445.012 224.6 446.452 223.8C447.919 223 449.559 222.6 451.372 222.6C453.452 222.6 455.292 223.053 456.892 223.96C458.492 224.867 459.759 226.133 460.692 227.76C461.626 229.36 462.092 231.24 462.092 233.4C462.092 235.56 461.626 237.453 460.692 239.08C459.759 240.707 458.492 241.973 456.892 242.88C455.292 243.787 453.452 244.24 451.372 244.24ZM440.132 251.76V222.8H443.812V228.52L443.572 233.44L443.972 238.36V251.76H440.132ZM451.052 240.88C452.412 240.88 453.626 240.573 454.692 239.96C455.786 239.347 456.639 238.48 457.252 237.36C457.892 236.213 458.212 234.893 458.212 233.4C458.212 231.88 457.892 230.573 457.252 229.48C456.639 228.36 455.786 227.493 454.692 226.88C453.626 226.267 452.412 225.96 451.052 225.96C449.719 225.96 448.506 226.267 447.412 226.88C446.346 227.493 445.492 228.36 444.852 229.48C444.239 230.573 443.932 231.88 443.932 233.4C443.932 234.893 444.239 236.213 444.852 237.36C445.492 238.48 446.346 239.347 447.412 239.96C448.506 240.573 449.719 240.88 451.052 240.88ZM467.398 244V222.8H471.078V228.56L470.718 227.12C471.304 225.653 472.291 224.533 473.678 223.76C475.064 222.987 476.771 222.6 478.798 222.6V226.32C478.638 226.293 478.478 226.28 478.318 226.28C478.184 226.28 478.051 226.28 477.918 226.28C475.864 226.28 474.238 226.893 473.038 228.12C471.838 229.347 471.238 231.12 471.238 233.44V244H467.398ZM483.531 244V222.8H487.371V244H483.531ZM485.451 218.72C484.704 218.72 484.077 218.48 483.571 218C483.091 217.52 482.851 216.933 482.851 216.24C482.851 215.52 483.091 214.92 483.571 214.44C484.077 213.96 484.704 213.72 485.451 213.72C486.197 213.72 486.811 213.96 487.291 214.44C487.797 214.893 488.051 215.467 488.051 216.16C488.051 216.88 487.811 217.493 487.331 218C486.851 218.48 486.224 218.72 485.451 218.72ZM521.223 222.6C522.929 222.6 524.436 222.933 525.743 223.6C527.049 224.267 528.063 225.28 528.783 226.64C529.529 228 529.903 229.72 529.903 231.8V244H526.063V232.24C526.063 230.187 525.583 228.64 524.623 227.6C523.663 226.56 522.316 226.04 520.583 226.04C519.303 226.04 518.183 226.307 517.223 226.84C516.263 227.373 515.516 228.16 514.983 229.2C514.476 230.24 514.223 231.533 514.223 233.08V244H510.383V232.24C510.383 230.187 509.903 228.64 508.943 227.6C508.009 226.56 506.663 226.04 504.903 226.04C503.649 226.04 502.543 226.307 501.583 226.84C500.623 227.373 499.876 228.16 499.343 229.2C498.809 230.24 498.543 231.533 498.543 233.08V244H494.703V222.8H498.383V228.44L497.783 227C498.449 225.613 499.476 224.533 500.863 223.76C502.249 222.987 503.863 222.6 505.703 222.6C507.729 222.6 509.476 223.107 510.943 224.12C512.409 225.107 513.369 226.613 513.823 228.64L512.263 228C512.903 226.373 514.023 225.067 515.623 224.08C517.223 223.093 519.089 222.6 521.223 222.6ZM546.408 244.24C544.141 244.24 542.141 243.773 540.408 242.84C538.701 241.907 537.368 240.627 536.408 239C535.475 237.373 535.008 235.507 535.008 233.4C535.008 231.293 535.461 229.427 536.368 227.8C537.301 226.173 538.568 224.907 540.168 224C541.795 223.067 543.621 222.6 545.648 222.6C547.701 222.6 549.515 223.053 551.088 223.96C552.661 224.867 553.888 226.147 554.768 227.8C555.675 229.427 556.128 231.333 556.128 233.52C556.128 233.68 556.115 233.867 556.088 234.08C556.088 234.293 556.075 234.493 556.048 234.68H538.008V231.92H554.048L552.488 232.88C552.515 231.52 552.235 230.307 551.648 229.24C551.061 228.173 550.248 227.347 549.208 226.76C548.195 226.147 547.008 225.84 545.648 225.84C544.315 225.84 543.128 226.147 542.088 226.76C541.048 227.347 540.235 228.187 539.648 229.28C539.061 230.347 538.768 231.573 538.768 232.96V233.6C538.768 235.013 539.088 236.28 539.728 237.4C540.395 238.493 541.315 239.347 542.488 239.96C543.661 240.573 545.008 240.88 546.528 240.88C547.781 240.88 548.915 240.667 549.928 240.24C550.968 239.813 551.875 239.173 552.648 238.32L554.768 240.8C553.808 241.92 552.608 242.773 551.168 243.36C549.755 243.947 548.168 244.24 546.408 244.24ZM561.46 244V222.8H565.14V228.56L564.78 227.12C565.367 225.653 566.354 224.533 567.74 223.76C569.127 222.987 570.834 222.6 572.86 222.6V226.32C572.7 226.293 572.54 226.28 572.38 226.28C572.247 226.28 572.114 226.28 571.98 226.28C569.927 226.28 568.3 226.893 567.1 228.12C565.9 229.347 565.3 231.12 565.3 233.44V244H561.46ZM599.849 244.24C598.089 244.24 596.475 243.84 595.009 243.04C593.569 242.213 592.409 241 591.529 239.4C590.675 237.8 590.249 235.8 590.249 233.4C590.249 231 590.662 229 591.489 227.4C592.342 225.8 593.489 224.6 594.929 223.8C596.395 223 598.035 222.6 599.849 222.6C601.929 222.6 603.769 223.053 605.369 223.96C606.969 224.867 608.235 226.133 609.169 227.76C610.102 229.36 610.569 231.24 610.569 233.4C610.569 235.56 610.102 237.453 609.169 239.08C608.235 240.707 606.969 241.973 605.369 242.88C603.769 243.787 601.929 244.24 599.849 244.24ZM588.609 251.76V222.8H592.289V228.52L592.049 233.44L592.449 238.36V251.76H588.609ZM599.529 240.88C600.889 240.88 602.102 240.573 603.169 239.96C604.262 239.347 605.115 238.48 605.729 237.36C606.369 236.213 606.689 234.893 606.689 233.4C606.689 231.88 606.369 230.573 605.729 229.48C605.115 228.36 604.262 227.493 603.169 226.88C602.102 226.267 600.889 225.96 599.529 225.96C598.195 225.96 596.982 226.267 595.889 226.88C594.822 227.493 593.969 228.36 593.329 229.48C592.715 230.573 592.409 231.88 592.409 233.4C592.409 234.893 592.715 236.213 593.329 237.36C593.969 238.48 594.822 239.347 595.889 239.96C596.982 240.573 598.195 240.88 599.529 240.88ZM615.874 244V222.8H619.554V228.56L619.194 227.12C619.781 225.653 620.768 224.533 622.154 223.76C623.541 222.987 625.248 222.6 627.274 222.6V226.32C627.114 226.293 626.954 226.28 626.794 226.28C626.661 226.28 626.528 226.28 626.394 226.28C624.341 226.28 622.714 226.893 621.514 228.12C620.314 229.347 619.714 231.12 619.714 233.44V244H615.874ZM640.892 244.24C638.759 244.24 636.865 243.773 635.212 242.84C633.559 241.907 632.252 240.627 631.292 239C630.332 237.347 629.852 235.48 629.852 233.4C629.852 231.293 630.332 229.427 631.292 227.8C632.252 226.173 633.559 224.907 635.212 224C636.865 223.067 638.759 222.6 640.892 222.6C642.999 222.6 644.879 223.067 646.532 224C648.212 224.907 649.519 226.173 650.452 227.8C651.412 229.4 651.892 231.267 651.892 233.4C651.892 235.507 651.412 237.373 650.452 239C649.519 240.627 648.212 241.907 646.532 242.84C644.879 243.773 642.999 244.24 640.892 244.24ZM640.892 240.88C642.252 240.88 643.465 240.573 644.532 239.96C645.625 239.347 646.479 238.48 647.092 237.36C647.705 236.213 648.012 234.893 648.012 233.4C648.012 231.88 647.705 230.573 647.092 229.48C646.479 228.36 645.625 227.493 644.532 226.88C643.465 226.267 642.252 225.96 640.892 225.96C639.532 225.96 638.319 226.267 637.252 226.88C636.185 227.493 635.332 228.36 634.692 229.48C634.052 230.573 633.732 231.88 633.732 233.4C633.732 234.893 634.052 236.213 634.692 237.36C635.332 238.48 636.185 239.347 637.252 239.96C638.319 240.573 639.532 240.88 640.892 240.88ZM665.963 244.24C663.909 244.24 662.069 243.787 660.443 242.88C658.843 241.973 657.576 240.707 656.643 239.08C655.709 237.453 655.243 235.56 655.243 233.4C655.243 231.24 655.709 229.36 656.643 227.76C657.576 226.133 658.843 224.867 660.443 223.96C662.069 223.053 663.909 222.6 665.963 222.6C667.749 222.6 669.363 223 670.803 223.8C672.243 224.6 673.389 225.8 674.243 227.4C675.123 229 675.563 231 675.563 233.4C675.563 235.8 675.136 237.8 674.283 239.4C673.456 241 672.323 242.213 670.883 243.04C669.443 243.84 667.803 244.24 665.963 244.24ZM666.283 240.88C667.616 240.88 668.816 240.573 669.883 239.96C670.976 239.347 671.829 238.48 672.443 237.36C673.083 236.213 673.403 234.893 673.403 233.4C673.403 231.88 673.083 230.573 672.443 229.48C671.829 228.36 670.976 227.493 669.883 226.88C668.816 226.267 667.616 225.96 666.283 225.96C664.923 225.96 663.709 226.267 662.643 226.88C661.576 227.493 660.723 228.36 660.083 229.48C659.443 230.573 659.123 231.88 659.123 233.4C659.123 234.893 659.443 236.213 660.083 237.36C660.723 238.48 661.576 239.347 662.643 239.96C663.709 240.573 664.923 240.88 666.283 240.88ZM673.523 244V238.28L673.762 233.36L673.363 228.44V214.32H677.203V244H673.523ZM693.388 244.24C691.575 244.24 689.975 243.907 688.588 243.24C687.228 242.573 686.161 241.56 685.388 240.2C684.641 238.813 684.268 237.08 684.268 235V222.8H688.108V234.56C688.108 236.64 688.601 238.2 689.588 239.24C690.601 240.28 692.015 240.8 693.828 240.8C695.161 240.8 696.321 240.533 697.308 240C698.295 239.44 699.055 238.64 699.588 237.6C700.121 236.533 700.388 235.253 700.388 233.76V222.8H704.228V244H700.588V238.28L701.188 239.8C700.495 241.213 699.455 242.307 698.068 243.08C696.681 243.853 695.121 244.24 693.388 244.24ZM711.538 244V222.8H715.378V244H711.538ZM713.458 218.72C712.712 218.72 712.085 218.48 711.578 218C711.098 217.52 710.858 216.933 710.858 216.24C710.858 215.52 711.098 214.92 711.578 214.44C712.085 213.96 712.712 213.72 713.458 213.72C714.205 213.72 714.818 213.96 715.298 214.44C715.805 214.893 716.058 215.467 716.058 216.16C716.058 216.88 715.818 217.493 715.338 218C714.858 218.48 714.232 218.72 713.458 218.72ZM729.99 244.24C727.857 244.24 726.204 243.667 725.03 242.52C723.857 241.373 723.27 239.733 723.27 237.6V218.16H727.11V237.44C727.11 238.587 727.39 239.467 727.95 240.08C728.537 240.693 729.364 241 730.43 241C731.63 241 732.63 240.667 733.43 240L734.63 242.76C734.044 243.267 733.337 243.64 732.51 243.88C731.71 244.12 730.87 244.24 729.99 244.24ZM719.67 225.96V222.8H733.19V225.96H719.67ZM756.135 244V219.48H746.535V216H769.695V219.48H760.095V244H756.135ZM780.584 252C778.637 252 776.744 251.72 774.904 251.16C773.091 250.627 771.611 249.853 770.464 248.84L772.304 245.88C773.291 246.733 774.504 247.4 775.944 247.88C777.384 248.387 778.891 248.64 780.464 248.64C782.971 248.64 784.811 248.053 785.984 246.88C787.157 245.707 787.744 243.92 787.744 241.52V237.04L788.144 232.84L787.944 228.6V222.8H791.584V241.12C791.584 244.853 790.651 247.6 788.784 249.36C786.917 251.12 784.184 252 780.584 252ZM780.104 243.12C778.051 243.12 776.211 242.693 774.584 241.84C772.984 240.96 771.704 239.747 770.744 238.2C769.811 236.653 769.344 234.867 769.344 232.84C769.344 230.787 769.811 229 770.744 227.48C771.704 225.933 772.984 224.733 774.584 223.88C776.211 223.027 778.051 222.6 780.104 222.6C781.917 222.6 783.571 222.973 785.064 223.72C786.557 224.44 787.744 225.56 788.624 227.08C789.531 228.6 789.984 230.52 789.984 232.84C789.984 235.133 789.531 237.04 788.624 238.56C787.744 240.08 786.557 241.227 785.064 242C783.571 242.747 781.917 243.12 780.104 243.12ZM780.544 239.76C781.957 239.76 783.211 239.467 784.304 238.88C785.397 238.293 786.251 237.48 786.864 236.44C787.504 235.4 787.824 234.2 787.824 232.84C787.824 231.48 787.504 230.28 786.864 229.24C786.251 228.2 785.397 227.4 784.304 226.84C783.211 226.253 781.957 225.96 780.544 225.96C779.131 225.96 777.864 226.253 776.744 226.84C775.651 227.4 774.784 228.2 774.144 229.24C773.531 230.28 773.224 231.48 773.224 232.84C773.224 234.2 773.531 235.4 774.144 236.44C774.784 237.48 775.651 238.293 776.744 238.88C777.864 239.467 779.131 239.76 780.544 239.76ZM810.161 244.24C808.348 244.24 806.708 243.84 805.241 243.04C803.801 242.213 802.655 241 801.801 239.4C800.975 237.8 800.561 235.8 800.561 233.4C800.561 231 800.988 229 801.841 227.4C802.721 225.8 803.881 224.6 805.321 223.8C806.788 223 808.401 222.6 810.161 222.6C812.241 222.6 814.081 223.053 815.681 223.96C817.281 224.867 818.548 226.133 819.481 227.76C820.415 229.36 820.881 231.24 820.881 233.4C820.881 235.56 820.415 237.453 819.481 239.08C818.548 240.707 817.281 241.973 815.681 242.88C814.081 243.787 812.241 244.24 810.161 244.24ZM798.921 244V214.32H802.761V228.44L802.361 233.36L802.601 238.28V244H798.921ZM809.841 240.88C811.201 240.88 812.415 240.573 813.481 239.96C814.575 239.347 815.428 238.48 816.041 237.36C816.681 236.213 817.001 234.893 817.001 233.4C817.001 231.88 816.681 230.573 816.041 229.48C815.428 228.36 814.575 227.493 813.481 226.88C812.415 226.267 811.201 225.96 809.841 225.96C808.508 225.96 807.295 226.267 806.201 226.88C805.135 227.493 804.281 228.36 803.641 229.48C803.028 230.573 802.721 231.88 802.721 233.4C802.721 234.893 803.028 236.213 803.641 237.36C804.281 238.48 805.135 239.347 806.201 239.96C807.295 240.573 808.508 240.88 809.841 240.88ZM837.507 222.6C839.24 222.6 840.76 222.933 842.067 223.6C843.4 224.267 844.44 225.28 845.187 226.64C845.934 228 846.307 229.72 846.307 231.8V244H842.467V232.24C842.467 230.187 841.96 228.64 840.947 227.6C839.96 226.56 838.56 226.04 836.747 226.04C835.387 226.04 834.2 226.307 833.187 226.84C832.174 227.373 831.387 228.16 830.827 229.2C830.294 230.24 830.027 231.533 830.027 233.08V244H826.187V214.32H830.027V228.52L829.267 227C829.96 225.613 831.027 224.533 832.467 223.76C833.907 222.987 835.587 222.6 837.507 222.6ZM862.333 244.24C860.52 244.24 858.92 243.907 857.533 243.24C856.173 242.573 855.107 241.56 854.333 240.2C853.587 238.813 853.213 237.08 853.213 235V222.8H857.053V234.56C857.053 236.64 857.547 238.2 858.533 239.24C859.547 240.28 860.96 240.8 862.773 240.8C864.107 240.8 865.267 240.533 866.253 240C867.24 239.44 868 238.64 868.533 237.6C869.067 236.533 869.333 235.253 869.333 233.76V222.8H873.173V244H869.533V238.28L870.133 239.8C869.44 241.213 868.4 242.307 867.013 243.08C865.627 243.853 864.067 244.24 862.333 244.24ZM880.484 244V222.8H884.324V244H880.484ZM882.404 218.72C881.657 218.72 881.03 218.48 880.524 218C880.044 217.52 879.804 216.933 879.804 216.24C879.804 215.52 880.044 214.92 880.524 214.44C881.03 213.96 881.657 213.72 882.404 213.72C883.15 213.72 883.764 213.96 884.244 214.44C884.75 214.893 885.004 215.467 885.004 216.16C885.004 216.88 884.764 217.493 884.284 218C883.804 218.48 883.177 218.72 882.404 218.72ZM907.878 235.16C907.878 234.12 908.051 233.213 908.398 232.44C908.744 231.667 909.171 230.973 909.678 230.36C910.211 229.747 910.784 229.187 911.398 228.68C912.011 228.147 912.584 227.627 913.118 227.12C913.651 226.587 914.078 226.027 914.398 225.44C914.744 224.853 914.918 224.173 914.918 223.4C914.918 222.12 914.411 221.08 913.398 220.28C912.384 219.48 910.984 219.08 909.198 219.08C907.598 219.08 906.211 219.347 905.038 219.88C903.864 220.413 902.864 221.2 902.038 222.24L899.118 220.16C900.238 218.747 901.664 217.653 903.398 216.88C905.131 216.08 907.158 215.68 909.478 215.68C911.398 215.68 913.064 215.973 914.478 216.56C915.891 217.12 916.984 217.933 917.758 219C918.558 220.04 918.958 221.307 918.958 222.8C918.958 223.92 918.784 224.88 918.438 225.68C918.091 226.48 917.651 227.187 917.118 227.8C916.584 228.413 916.011 228.987 915.398 229.52C914.811 230.053 914.251 230.587 913.718 231.12C913.184 231.653 912.744 232.24 912.398 232.88C912.051 233.52 911.878 234.28 911.878 235.16H907.878ZM909.918 244.24C909.171 244.24 908.544 243.987 908.038 243.48C907.558 242.973 907.318 242.373 907.318 241.68C907.318 240.933 907.558 240.32 908.038 239.84C908.544 239.36 909.171 239.12 909.918 239.12C910.664 239.12 911.278 239.36 911.758 239.84C912.238 240.32 912.478 240.933 912.478 241.68C912.478 242.373 912.238 242.973 911.758 243.48C911.278 243.987 910.664 244.24 909.918 244.24Z" fill="black"/>
</svg>
